<mxfile host="65bd71144e">
    <diagram id="zKjN0YVDRVZQ_WuboTMo" name="use case">
        <mxGraphModel dx="592" dy="2695" grid="1" gridSize="10" guides="1" tooltips="1" connect="1" arrows="1" fold="1" page="1" pageScale="1" pageWidth="827" pageHeight="1169" math="0" shadow="0">
            <root>
                <mxCell id="0"/>
                <mxCell id="1" parent="0"/>
                <mxCell id="51" value="" style="rounded=0;whiteSpace=wrap;html=1;" parent="1" vertex="1">
                    <mxGeometry x="120" y="-2270" width="460" height="920" as="geometry"/>
                </mxCell>
                <mxCell id="14" value="Administrator" style="shape=umlActor;verticalLabelPosition=bottom;verticalAlign=top;html=1;outlineConnect=0;" parent="1" vertex="1">
                    <mxGeometry x="30" y="-2120" width="30" height="60" as="geometry"/>
                </mxCell>
                <mxCell id="15" value="manage users" style="ellipse;whiteSpace=wrap;html=1;" parent="1" vertex="1">
                    <mxGeometry x="250" y="-2250" width="110" height="50" as="geometry"/>
                </mxCell>
                <mxCell id="62" style="edgeStyle=orthogonalEdgeStyle;rounded=0;orthogonalLoop=1;jettySize=auto;html=1;exitX=0.5;exitY=0;exitDx=0;exitDy=0;entryX=0.5;entryY=0;entryDx=0;entryDy=0;endArrow=none;endFill=0;" parent="1" source="16" target="17" edge="1">
                    <mxGeometry relative="1" as="geometry">
                        <Array as="points">
                            <mxPoint x="235" y="-2180"/>
                            <mxPoint x="370" y="-2180"/>
                        </Array>
                    </mxGeometry>
                </mxCell>
                <mxCell id="16" value="validate users" style="ellipse;whiteSpace=wrap;html=1;" parent="1" vertex="1">
                    <mxGeometry x="190" y="-2170" width="90" height="50" as="geometry"/>
                </mxCell>
                <mxCell id="17" value="delete users" style="ellipse;whiteSpace=wrap;html=1;" parent="1" vertex="1">
                    <mxGeometry x="330" y="-2170" width="80" height="50" as="geometry"/>
                </mxCell>
                <mxCell id="20" value="manage comments" style="ellipse;whiteSpace=wrap;html=1;" parent="1" vertex="1">
                    <mxGeometry x="240" y="-2100" width="110" height="50" as="geometry"/>
                </mxCell>
                <mxCell id="63" style="edgeStyle=orthogonalEdgeStyle;rounded=0;orthogonalLoop=1;jettySize=auto;html=1;exitX=0.5;exitY=0;exitDx=0;exitDy=0;entryX=0.5;entryY=0;entryDx=0;entryDy=0;endArrow=none;endFill=0;" parent="1" source="21" target="22" edge="1">
                    <mxGeometry relative="1" as="geometry">
                        <Array as="points">
                            <mxPoint x="225" y="-2030"/>
                            <mxPoint x="360" y="-2030"/>
                        </Array>
                    </mxGeometry>
                </mxCell>
                <mxCell id="21" value="approve comments" style="ellipse;whiteSpace=wrap;html=1;" parent="1" vertex="1">
                    <mxGeometry x="180" y="-2020" width="90" height="50" as="geometry"/>
                </mxCell>
                <mxCell id="22" value="delete comments" style="ellipse;whiteSpace=wrap;html=1;" parent="1" vertex="1">
                    <mxGeometry x="320" y="-2020" width="80" height="50" as="geometry"/>
                </mxCell>
                <mxCell id="25" value="login" style="ellipse;whiteSpace=wrap;html=1;" parent="1" vertex="1">
                    <mxGeometry x="470" y="-2150" width="100" height="60" as="geometry"/>
                </mxCell>
                <mxCell id="26" value="reset password" style="ellipse;whiteSpace=wrap;html=1;" parent="1" vertex="1">
                    <mxGeometry x="470" y="-2050" width="100" height="60" as="geometry"/>
                </mxCell>
                <mxCell id="27" value="&amp;lt;&amp;lt;include&amp;gt;&amp;gt;" style="html=1;verticalAlign=bottom;labelBackgroundColor=none;endArrow=open;endFill=0;dashed=1;exitX=0.979;exitY=0.647;exitDx=0;exitDy=0;exitPerimeter=0;entryX=0.21;entryY=0.039;entryDx=0;entryDy=0;entryPerimeter=0;" parent="1" source="15" target="25" edge="1">
                    <mxGeometry x="0.0548" y="15" width="160" relative="1" as="geometry">
                        <mxPoint x="230" y="-2170" as="sourcePoint"/>
                        <mxPoint x="500" y="-2140" as="targetPoint"/>
                        <mxPoint as="offset"/>
                    </mxGeometry>
                </mxCell>
                <mxCell id="29" value="&amp;lt;&amp;lt;include&amp;gt;&amp;gt;" style="html=1;verticalAlign=bottom;labelBackgroundColor=none;endArrow=open;endFill=0;dashed=1;exitX=1;exitY=0.5;exitDx=0;exitDy=0;entryX=0.06;entryY=0.831;entryDx=0;entryDy=0;entryPerimeter=0;" parent="1" source="20" target="25" edge="1">
                    <mxGeometry width="160" relative="1" as="geometry">
                        <mxPoint x="230" y="-2170" as="sourcePoint"/>
                        <mxPoint x="390" y="-2170" as="targetPoint"/>
                    </mxGeometry>
                </mxCell>
                <mxCell id="30" value="&amp;lt;&amp;lt;extend&amp;gt;&amp;gt;" style="html=1;verticalAlign=bottom;labelBackgroundColor=none;endArrow=open;endFill=0;dashed=1;exitX=0.5;exitY=0;exitDx=0;exitDy=0;entryX=0.5;entryY=1;entryDx=0;entryDy=0;" parent="1" source="26" target="25" edge="1">
                    <mxGeometry x="-0.5" y="30" width="160" relative="1" as="geometry">
                        <mxPoint x="230" y="-2170" as="sourcePoint"/>
                        <mxPoint x="390" y="-2170" as="targetPoint"/>
                        <mxPoint as="offset"/>
                    </mxGeometry>
                </mxCell>
                <mxCell id="41" value="" style="edgeStyle=orthogonalEdgeStyle;rounded=0;orthogonalLoop=1;jettySize=auto;html=1;endArrow=none;endFill=0;" parent="1" source="34" target="40" edge="1">
                    <mxGeometry relative="1" as="geometry"/>
                </mxCell>
                <mxCell id="34" value="manage blog posts" style="ellipse;whiteSpace=wrap;html=1;" parent="1" vertex="1">
                    <mxGeometry x="240" y="-1930" width="110" height="50" as="geometry"/>
                </mxCell>
                <mxCell id="64" style="edgeStyle=orthogonalEdgeStyle;rounded=0;orthogonalLoop=1;jettySize=auto;html=1;entryX=0.5;entryY=0;entryDx=0;entryDy=0;endArrow=none;endFill=0;exitX=0.5;exitY=0;exitDx=0;exitDy=0;" parent="1" source="35" target="36" edge="1">
                    <mxGeometry relative="1" as="geometry">
                        <Array as="points">
                            <mxPoint x="175" y="-1860"/>
                            <mxPoint x="430" y="-1860"/>
                        </Array>
                    </mxGeometry>
                </mxCell>
                <mxCell id="35" value="create posts" style="ellipse;whiteSpace=wrap;html=1;" parent="1" vertex="1">
                    <mxGeometry x="130" y="-1850" width="90" height="50" as="geometry"/>
                </mxCell>
                <mxCell id="36" value="delete posts" style="ellipse;whiteSpace=wrap;html=1;" parent="1" vertex="1">
                    <mxGeometry x="390" y="-1850" width="80" height="50" as="geometry"/>
                </mxCell>
                <mxCell id="38" value="" style="endArrow=block;html=1;entryX=0.5;entryY=1;entryDx=0;entryDy=0;endFill=0;" parent="1" target="34" edge="1">
                    <mxGeometry width="50" height="50" relative="1" as="geometry">
                        <mxPoint x="295" y="-1860" as="sourcePoint"/>
                        <mxPoint x="470" y="-1790" as="targetPoint"/>
                    </mxGeometry>
                </mxCell>
                <mxCell id="40" value="edit posts" style="ellipse;whiteSpace=wrap;html=1;" parent="1" vertex="1">
                    <mxGeometry x="250" y="-1840" width="90" height="40" as="geometry"/>
                </mxCell>
                <mxCell id="43" value="Visiter" style="shape=umlActor;verticalLabelPosition=bottom;verticalAlign=top;html=1;outlineConnect=0;" parent="1" vertex="1">
                    <mxGeometry x="60" y="-1720" width="30" height="60" as="geometry"/>
                </mxCell>
                <mxCell id="45" value="read blog posts" style="ellipse;whiteSpace=wrap;html=1;" parent="1" vertex="1">
                    <mxGeometry x="230" y="-1650" width="130" height="60" as="geometry"/>
                </mxCell>
                <mxCell id="46" value="leave comments" style="ellipse;whiteSpace=wrap;html=1;" parent="1" vertex="1">
                    <mxGeometry x="227.5" y="-1580" width="135" height="60" as="geometry"/>
                </mxCell>
                <mxCell id="48" value="download CV" style="ellipse;whiteSpace=wrap;html=1;" parent="1" vertex="1">
                    <mxGeometry x="225" y="-1510" width="135" height="60" as="geometry"/>
                </mxCell>
                <mxCell id="No9gXGaeg8oL5aO1zRQ8-84" style="edgeStyle=orthogonalEdgeStyle;rounded=0;orthogonalLoop=1;jettySize=auto;html=1;entryX=0;entryY=0.5;entryDx=0;entryDy=0;dashed=1;" parent="1" source="46" target="No9gXGaeg8oL5aO1zRQ8-81" edge="1">
                    <mxGeometry relative="1" as="geometry">
                        <Array as="points"/>
                    </mxGeometry>
                </mxCell>
                <mxCell id="49" value="leave a message via contact form" style="ellipse;whiteSpace=wrap;html=1;" parent="1" vertex="1">
                    <mxGeometry x="225" y="-1430" width="115" height="60" as="geometry"/>
                </mxCell>
                <mxCell id="54" value="" style="endArrow=none;html=1;entryX=0;entryY=0.5;entryDx=0;entryDy=0;" parent="1" target="20" edge="1">
                    <mxGeometry width="50" height="50" relative="1" as="geometry">
                        <mxPoint x="60" y="-2100" as="sourcePoint"/>
                        <mxPoint x="130" y="-2150" as="targetPoint"/>
                    </mxGeometry>
                </mxCell>
                <mxCell id="55" value="" style="endArrow=none;html=1;exitX=0;exitY=0.5;exitDx=0;exitDy=0;entryX=1;entryY=0.3333333333333333;entryDx=0;entryDy=0;entryPerimeter=0;" parent="1" source="34" target="14" edge="1">
                    <mxGeometry width="50" height="50" relative="1" as="geometry">
                        <mxPoint x="80" y="-2080" as="sourcePoint"/>
                        <mxPoint x="90" y="-2150" as="targetPoint"/>
                    </mxGeometry>
                </mxCell>
                <mxCell id="60" value="" style="endArrow=none;html=1;entryX=0;entryY=0.5;entryDx=0;entryDy=0;exitX=1;exitY=0.3333333333333333;exitDx=0;exitDy=0;exitPerimeter=0;" parent="1" source="43" target="45" edge="1">
                    <mxGeometry width="50" height="50" relative="1" as="geometry">
                        <mxPoint x="170" y="-1570" as="sourcePoint"/>
                        <mxPoint x="220" y="-1620" as="targetPoint"/>
                    </mxGeometry>
                </mxCell>
                <mxCell id="65" value="" style="endArrow=block;html=1;entryX=0.5;entryY=1;entryDx=0;entryDy=0;endFill=0;" parent="1" edge="1">
                    <mxGeometry width="50" height="50" relative="1" as="geometry">
                        <mxPoint x="294.5" y="-2030" as="sourcePoint"/>
                        <mxPoint x="294.5" y="-2050" as="targetPoint"/>
                        <Array as="points">
                            <mxPoint x="294.5" y="-2050"/>
                        </Array>
                    </mxGeometry>
                </mxCell>
                <mxCell id="66" value="" style="endArrow=block;html=1;entryX=0.5;entryY=1;entryDx=0;entryDy=0;endFill=0;" parent="1" edge="1">
                    <mxGeometry width="50" height="50" relative="1" as="geometry">
                        <mxPoint x="304.5" y="-2180" as="sourcePoint"/>
                        <mxPoint x="304.5" y="-2200" as="targetPoint"/>
                        <Array as="points">
                            <mxPoint x="304.5" y="-2200"/>
                        </Array>
                    </mxGeometry>
                </mxCell>
                <mxCell id="68" value="" style="endArrow=none;html=1;entryX=0;entryY=0.5;entryDx=0;entryDy=0;" parent="1" target="46" edge="1">
                    <mxGeometry width="50" height="50" relative="1" as="geometry">
                        <mxPoint x="90" y="-1700" as="sourcePoint"/>
                        <mxPoint x="220" y="-1610" as="targetPoint"/>
                    </mxGeometry>
                </mxCell>
                <mxCell id="69" value="" style="endArrow=none;html=1;entryX=0;entryY=0.5;entryDx=0;entryDy=0;" parent="1" target="48" edge="1">
                    <mxGeometry width="50" height="50" relative="1" as="geometry">
                        <mxPoint x="90" y="-1700" as="sourcePoint"/>
                        <mxPoint x="220" y="-1610" as="targetPoint"/>
                    </mxGeometry>
                </mxCell>
                <mxCell id="70" value="" style="endArrow=none;html=1;entryX=0;entryY=0.5;entryDx=0;entryDy=0;" parent="1" target="49" edge="1">
                    <mxGeometry width="50" height="50" relative="1" as="geometry">
                        <mxPoint x="90" y="-1700" as="sourcePoint"/>
                        <mxPoint x="220" y="-1500" as="targetPoint"/>
                    </mxGeometry>
                </mxCell>
                <mxCell id="71" value="Use case diagram: blog" style="text;whiteSpace=wrap;html=1;fontStyle=1" parent="1" vertex="1">
                    <mxGeometry x="260" y="-2320" width="150" height="30" as="geometry"/>
                </mxCell>
                <mxCell id="72" value="blog system" style="text;whiteSpace=wrap;html=1;fontStyle=1" parent="1" vertex="1">
                    <mxGeometry x="135" y="-2270" width="90" height="30" as="geometry"/>
                </mxCell>
                <mxCell id="No9gXGaeg8oL5aO1zRQ8-72" value="" style="endArrow=none;html=1;entryX=0;entryY=0.5;entryDx=0;entryDy=0;" parent="1" target="15" edge="1">
                    <mxGeometry width="50" height="50" relative="1" as="geometry">
                        <mxPoint x="60" y="-2100" as="sourcePoint"/>
                        <mxPoint x="250" y="-2065" as="targetPoint"/>
                    </mxGeometry>
                </mxCell>
                <mxCell id="No9gXGaeg8oL5aO1zRQ8-81" value="login" style="ellipse;whiteSpace=wrap;html=1;" parent="1" vertex="1">
                    <mxGeometry x="460" y="-1580" width="90" height="60" as="geometry"/>
                </mxCell>
                <mxCell id="No9gXGaeg8oL5aO1zRQ8-82" value="reset password" style="ellipse;whiteSpace=wrap;html=1;" parent="1" vertex="1">
                    <mxGeometry x="455" y="-1480" width="100" height="60" as="geometry"/>
                </mxCell>
                <mxCell id="No9gXGaeg8oL5aO1zRQ8-83" value="&amp;lt;&amp;lt;extend&amp;gt;&amp;gt;" style="html=1;verticalAlign=bottom;labelBackgroundColor=none;endArrow=open;endFill=0;dashed=1;exitX=0.5;exitY=0;exitDx=0;exitDy=0;" parent="1" source="No9gXGaeg8oL5aO1zRQ8-82" target="No9gXGaeg8oL5aO1zRQ8-81" edge="1">
                    <mxGeometry x="-0.2" y="35" width="160" relative="1" as="geometry">
                        <mxPoint x="210" y="-1610" as="sourcePoint"/>
                        <mxPoint x="370" y="-1610" as="targetPoint"/>
                        <mxPoint as="offset"/>
                    </mxGeometry>
                </mxCell>
                <mxCell id="No9gXGaeg8oL5aO1zRQ8-86" value="&lt;span style=&quot;color: rgb(0 , 0 , 0) ; font-family: &amp;#34;helvetica&amp;#34; ; font-size: 11px ; font-style: normal ; font-weight: 400 ; letter-spacing: normal ; text-align: center ; text-indent: 0px ; text-transform: none ; word-spacing: 0px ; background-color: rgb(248 , 249 , 250) ; display: inline ; float: none&quot;&gt;&amp;lt;&amp;lt;include&amp;gt;&amp;gt;&lt;/span&gt;" style="text;whiteSpace=wrap;html=1;" parent="1" vertex="1">
                    <mxGeometry x="362.5" y="-1580" width="80" height="30" as="geometry"/>
                </mxCell>
                <mxCell id="No9gXGaeg8oL5aO1zRQ8-88" style="edgeStyle=orthogonalEdgeStyle;rounded=0;orthogonalLoop=1;jettySize=auto;html=1;entryX=0.5;entryY=0;entryDx=0;entryDy=0;dashed=1;" parent="1" source="No9gXGaeg8oL5aO1zRQ8-87" target="No9gXGaeg8oL5aO1zRQ8-81" edge="1">
                    <mxGeometry relative="1" as="geometry"/>
                </mxCell>
                <mxCell id="No9gXGaeg8oL5aO1zRQ8-87" value="sign up&amp;nbsp;" style="ellipse;whiteSpace=wrap;html=1;" parent="1" vertex="1">
                    <mxGeometry x="455" y="-1700" width="100" height="60" as="geometry"/>
                </mxCell>
                <mxCell id="No9gXGaeg8oL5aO1zRQ8-89" value="&lt;span style=&quot;color: rgb(0, 0, 0); font-family: helvetica; font-size: 11px; font-style: normal; font-weight: 400; letter-spacing: normal; text-align: center; text-indent: 0px; text-transform: none; word-spacing: 0px; background-color: rgb(248, 249, 250); display: inline; float: none;&quot;&gt;&amp;lt;&amp;lt;extend&amp;gt;&amp;gt;&lt;/span&gt;" style="text;whiteSpace=wrap;html=1;" parent="1" vertex="1">
                    <mxGeometry x="430" y="-1630" width="80" height="30" as="geometry"/>
                </mxCell>
            </root>
        </mxGraphModel>
    </diagram>
    <diagram id="6nqb3Sw_HK7QkpcgX9lW" name="sequence diagram:sign up for an account">
        <mxGraphModel dx="592" dy="357" grid="1" gridSize="10" guides="1" tooltips="1" connect="1" arrows="1" fold="1" page="1" pageScale="1" pageWidth="827" pageHeight="1169" math="0" shadow="0">
            <root>
                <mxCell id="kn6e1ieZTBljwvRIqxvh-0"/>
                <mxCell id="kn6e1ieZTBljwvRIqxvh-1" parent="kn6e1ieZTBljwvRIqxvh-0"/>
                <mxCell id="kn6e1ieZTBljwvRIqxvh-2" value="User" style="shape=umlActor;verticalLabelPosition=bottom;verticalAlign=top;html=1;outlineConnect=0;" parent="kn6e1ieZTBljwvRIqxvh-1" vertex="1">
                    <mxGeometry x="70" y="80" width="30" height="60" as="geometry"/>
                </mxCell>
                <mxCell id="kn6e1ieZTBljwvRIqxvh-3" value="system" style="shape=umlLifeline;perimeter=lifelinePerimeter;whiteSpace=wrap;html=1;container=1;collapsible=0;recursiveResize=0;outlineConnect=0;" parent="kn6e1ieZTBljwvRIqxvh-1" vertex="1">
                    <mxGeometry x="290" y="120" width="100" height="520" as="geometry"/>
                </mxCell>
                <mxCell id="kn6e1ieZTBljwvRIqxvh-5" value="database" style="shape=umlLifeline;perimeter=lifelinePerimeter;whiteSpace=wrap;html=1;container=1;collapsible=0;recursiveResize=0;outlineConnect=0;" parent="kn6e1ieZTBljwvRIqxvh-1" vertex="1">
                    <mxGeometry x="550" y="120" width="100" height="520" as="geometry"/>
                </mxCell>
                <mxCell id="kn6e1ieZTBljwvRIqxvh-6" value="" style="endArrow=none;dashed=1;html=1;strokeWidth=1;" parent="kn6e1ieZTBljwvRIqxvh-1" edge="1">
                    <mxGeometry width="50" height="50" relative="1" as="geometry">
                        <mxPoint x="80" y="675" as="sourcePoint"/>
                        <mxPoint x="80" y="160" as="targetPoint"/>
                    </mxGeometry>
                </mxCell>
                <mxCell id="kn6e1ieZTBljwvRIqxvh-7" value="" style="html=1;verticalAlign=bottom;labelBackgroundColor=none;endArrow=block;endFill=1;strokeWidth=1;" parent="kn6e1ieZTBljwvRIqxvh-1" target="kn6e1ieZTBljwvRIqxvh-3" edge="1">
                    <mxGeometry width="160" relative="1" as="geometry">
                        <mxPoint x="80" y="200" as="sourcePoint"/>
                        <mxPoint x="400" y="260" as="targetPoint"/>
                    </mxGeometry>
                </mxCell>
                <mxCell id="kn6e1ieZTBljwvRIqxvh-10" value="click on sign up button&amp;nbsp;" style="text;html=1;align=center;verticalAlign=middle;resizable=0;points=[];autosize=1;strokeColor=none;" parent="kn6e1ieZTBljwvRIqxvh-1" vertex="1">
                    <mxGeometry x="120" y="180" width="140" height="20" as="geometry"/>
                </mxCell>
                <mxCell id="kn6e1ieZTBljwvRIqxvh-11" value="" style="html=1;verticalAlign=bottom;labelBackgroundColor=none;endArrow=block;endFill=1;dashed=1;strokeWidth=1;" parent="kn6e1ieZTBljwvRIqxvh-1" source="kn6e1ieZTBljwvRIqxvh-3" edge="1">
                    <mxGeometry width="160" relative="1" as="geometry">
                        <mxPoint x="120" y="260" as="sourcePoint"/>
                        <mxPoint x="80" y="230" as="targetPoint"/>
                    </mxGeometry>
                </mxCell>
                <mxCell id="kn6e1ieZTBljwvRIqxvh-12" value="display sign up page" style="text;html=1;align=center;verticalAlign=middle;resizable=0;points=[];autosize=1;strokeColor=none;" parent="kn6e1ieZTBljwvRIqxvh-1" vertex="1">
                    <mxGeometry x="130" y="210" width="120" height="20" as="geometry"/>
                </mxCell>
                <mxCell id="kn6e1ieZTBljwvRIqxvh-13" value="" style="html=1;verticalAlign=bottom;labelBackgroundColor=none;endArrow=block;endFill=1;strokeWidth=1;" parent="kn6e1ieZTBljwvRIqxvh-1" target="kn6e1ieZTBljwvRIqxvh-3" edge="1">
                    <mxGeometry width="160" relative="1" as="geometry">
                        <mxPoint x="80" y="260" as="sourcePoint"/>
                        <mxPoint x="339.5" y="260" as="targetPoint"/>
                    </mxGeometry>
                </mxCell>
                <mxCell id="kn6e1ieZTBljwvRIqxvh-14" value="submit filled out form" style="text;html=1;align=center;verticalAlign=middle;resizable=0;points=[];autosize=1;strokeColor=none;" parent="kn6e1ieZTBljwvRIqxvh-1" vertex="1">
                    <mxGeometry x="120" y="240" width="130" height="20" as="geometry"/>
                </mxCell>
                <mxCell id="kn6e1ieZTBljwvRIqxvh-19" value="verify information" style="text;html=1;align=center;verticalAlign=middle;resizable=0;points=[];autosize=1;strokeColor=none;" parent="kn6e1ieZTBljwvRIqxvh-1" vertex="1">
                    <mxGeometry x="370" y="280" width="110" height="20" as="geometry"/>
                </mxCell>
                <mxCell id="kn6e1ieZTBljwvRIqxvh-24" value="" style="html=1;verticalAlign=bottom;labelBackgroundColor=none;endArrow=block;endFill=1;dashed=1;strokeWidth=1;" parent="kn6e1ieZTBljwvRIqxvh-1" edge="1">
                    <mxGeometry width="160" relative="1" as="geometry">
                        <mxPoint x="340" y="400" as="sourcePoint"/>
                        <mxPoint x="80.5" y="400" as="targetPoint"/>
                    </mxGeometry>
                </mxCell>
                <mxCell id="kn6e1ieZTBljwvRIqxvh-26" value="" style="html=1;verticalAlign=bottom;labelBackgroundColor=none;endArrow=block;endFill=1;strokeWidth=1;" parent="kn6e1ieZTBljwvRIqxvh-1" edge="1">
                    <mxGeometry width="160" relative="1" as="geometry">
                        <mxPoint x="340" y="490" as="sourcePoint"/>
                        <mxPoint x="599.5" y="490" as="targetPoint"/>
                    </mxGeometry>
                </mxCell>
                <mxCell id="kn6e1ieZTBljwvRIqxvh-31" value="" style="html=1;verticalAlign=bottom;labelBackgroundColor=none;endArrow=block;endFill=1;strokeWidth=1;" parent="kn6e1ieZTBljwvRIqxvh-1" source="kn6e1ieZTBljwvRIqxvh-3" target="kn6e1ieZTBljwvRIqxvh-3" edge="1">
                    <mxGeometry width="160" relative="1" as="geometry">
                        <mxPoint x="339.5" y="370" as="sourcePoint"/>
                        <mxPoint x="339.5" y="390" as="targetPoint"/>
                        <Array as="points">
                            <mxPoint x="370" y="280"/>
                            <mxPoint x="370" y="310"/>
                        </Array>
                    </mxGeometry>
                </mxCell>
                <mxCell id="kn6e1ieZTBljwvRIqxvh-33" value="" style="html=1;verticalAlign=bottom;labelBackgroundColor=none;endArrow=block;endFill=1;dashed=1;strokeWidth=1;" parent="kn6e1ieZTBljwvRIqxvh-1" edge="1">
                    <mxGeometry width="160" relative="1" as="geometry">
                        <mxPoint x="599.5" y="520" as="sourcePoint"/>
                        <mxPoint x="340" y="520" as="targetPoint"/>
                    </mxGeometry>
                </mxCell>
                <mxCell id="kn6e1ieZTBljwvRIqxvh-36" value="" style="html=1;verticalAlign=bottom;labelBackgroundColor=none;endArrow=block;endFill=1;dashed=1;strokeWidth=1;" parent="kn6e1ieZTBljwvRIqxvh-1" edge="1">
                    <mxGeometry width="160" relative="1" as="geometry">
                        <mxPoint x="339.5" y="540" as="sourcePoint"/>
                        <mxPoint x="80" y="540" as="targetPoint"/>
                    </mxGeometry>
                </mxCell>
                <mxCell id="kn6e1ieZTBljwvRIqxvh-56" value="Sequence diagram: Sign up for an account" style="text;whiteSpace=wrap;html=1;fontStyle=1" parent="kn6e1ieZTBljwvRIqxvh-1" vertex="1">
                    <mxGeometry x="90" y="10" width="250" height="30" as="geometry"/>
                </mxCell>
                <mxCell id="dogtwtPql7pncU6Eizcw-0" value="" style="rounded=0;whiteSpace=wrap;html=1;labelBackgroundColor=#ffffff;" parent="kn6e1ieZTBljwvRIqxvh-1" vertex="1">
                    <mxGeometry x="340" y="190" width="5" height="390" as="geometry"/>
                </mxCell>
                <mxCell id="kn6e1ieZTBljwvRIqxvh-20" value="alt" style="shape=umlFrame;tabWidth=110;tabHeight=30;tabPosition=left;html=1;boundedLbl=1;labelInHeader=1;width=60;height=30;" parent="kn6e1ieZTBljwvRIqxvh-1" vertex="1">
                    <mxGeometry x="70" y="320" width="710" height="240" as="geometry"/>
                </mxCell>
                <mxCell id="kn6e1ieZTBljwvRIqxvh-21" value="[If the info does not meet the requirements: correct format, no duplicated usernames/email address, age is above 18]" style="text;labelBackgroundColor=#ffffff;" parent="kn6e1ieZTBljwvRIqxvh-20" vertex="1">
                    <mxGeometry width="100" height="20" relative="1" as="geometry">
                        <mxPoint x="70" y="10" as="offset"/>
                    </mxGeometry>
                </mxCell>
                <mxCell id="kn6e1ieZTBljwvRIqxvh-22" value="[If the information meets the requirements]" style="line;strokeWidth=1;dashed=1;labelPosition=center;verticalLabelPosition=bottom;align=left;verticalAlign=top;spacingLeft=20;spacingTop=15;" parent="kn6e1ieZTBljwvRIqxvh-20" vertex="1">
                    <mxGeometry y="119.99999999999999" width="710" height="9.6" as="geometry"/>
                </mxCell>
                <mxCell id="kn6e1ieZTBljwvRIqxvh-25" value="send an error message" style="text;html=1;align=center;verticalAlign=middle;resizable=0;points=[];autosize=1;strokeColor=none;" parent="kn6e1ieZTBljwvRIqxvh-20" vertex="1">
                    <mxGeometry x="43.692307692307686" y="62.45454545454545" width="140" height="20" as="geometry"/>
                </mxCell>
                <mxCell id="kn6e1ieZTBljwvRIqxvh-32" value="save data" style="text;html=1;align=center;verticalAlign=middle;resizable=0;points=[];autosize=1;strokeColor=none;" parent="kn6e1ieZTBljwvRIqxvh-20" vertex="1">
                    <mxGeometry x="327.6923076923077" y="150.72727272727272" width="70" height="20" as="geometry"/>
                </mxCell>
                <mxCell id="kn6e1ieZTBljwvRIqxvh-34" value="return data" style="text;html=1;align=center;verticalAlign=middle;resizable=0;points=[];autosize=1;strokeColor=none;" parent="kn6e1ieZTBljwvRIqxvh-20" vertex="1">
                    <mxGeometry x="327.6923076923077" y="179.99727272727273" width="70" height="20" as="geometry"/>
                </mxCell>
                <mxCell id="kn6e1ieZTBljwvRIqxvh-55" value="show success message" style="text;html=1;align=center;verticalAlign=middle;resizable=0;points=[];autosize=1;strokeColor=none;" parent="kn6e1ieZTBljwvRIqxvh-20" vertex="1">
                    <mxGeometry x="10.923076923076922" y="199.99727272727273" width="140" height="20" as="geometry"/>
                </mxCell>
                <mxCell id="dogtwtPql7pncU6Eizcw-1" value="" style="rounded=0;whiteSpace=wrap;html=1;labelBackgroundColor=#ffffff;" parent="kn6e1ieZTBljwvRIqxvh-1" vertex="1">
                    <mxGeometry x="598" y="470" width="5" height="60" as="geometry"/>
                </mxCell>
            </root>
        </mxGraphModel>
    </diagram>
    <diagram id="b7PieyUfxi4IKYwZ3F0I" name="sequence diagram: login ">
        <mxGraphModel dx="592" dy="357" grid="1" gridSize="10" guides="1" tooltips="1" connect="1" arrows="1" fold="1" page="1" pageScale="1" pageWidth="827" pageHeight="1169" math="0" shadow="0">
            <root>
                <mxCell id="ZFWa3hAxqIq1_LuUujdI-0"/>
                <mxCell id="ZFWa3hAxqIq1_LuUujdI-1" parent="ZFWa3hAxqIq1_LuUujdI-0"/>
                <mxCell id="ZFWa3hAxqIq1_LuUujdI-2" value="User" style="shape=umlActor;verticalLabelPosition=bottom;verticalAlign=top;html=1;labelBackgroundColor=#ffffff;" parent="ZFWa3hAxqIq1_LuUujdI-1" vertex="1">
                    <mxGeometry x="110" y="100" width="30" height="60" as="geometry"/>
                </mxCell>
                <mxCell id="ZFWa3hAxqIq1_LuUujdI-4" value="System" style="shape=umlLifeline;perimeter=lifelinePerimeter;whiteSpace=wrap;html=1;container=1;collapsible=0;recursiveResize=0;outlineConnect=0;labelBackgroundColor=#ffffff;" parent="ZFWa3hAxqIq1_LuUujdI-1" vertex="1">
                    <mxGeometry x="340" y="120" width="100" height="490" as="geometry"/>
                </mxCell>
                <mxCell id="ZFWa3hAxqIq1_LuUujdI-6" value="Database" style="shape=umlLifeline;perimeter=lifelinePerimeter;whiteSpace=wrap;html=1;container=1;collapsible=0;recursiveResize=0;outlineConnect=0;labelBackgroundColor=#ffffff;" parent="ZFWa3hAxqIq1_LuUujdI-1" vertex="1">
                    <mxGeometry x="600" y="120" width="100" height="500" as="geometry"/>
                </mxCell>
                <mxCell id="ZFWa3hAxqIq1_LuUujdI-7" value="" style="endArrow=none;dashed=1;html=1;strokeWidth=1;" parent="ZFWa3hAxqIq1_LuUujdI-1" edge="1">
                    <mxGeometry width="50" height="50" relative="1" as="geometry">
                        <mxPoint x="120" y="630" as="sourcePoint"/>
                        <mxPoint x="125" y="190" as="targetPoint"/>
                    </mxGeometry>
                </mxCell>
                <mxCell id="ZFWa3hAxqIq1_LuUujdI-10" value="" style="html=1;verticalAlign=bottom;labelBackgroundColor=none;endArrow=block;endFill=1;strokeWidth=1;" parent="ZFWa3hAxqIq1_LuUujdI-1" edge="1">
                    <mxGeometry width="160" relative="1" as="geometry">
                        <mxPoint x="130" y="210" as="sourcePoint"/>
                        <mxPoint x="389.5" y="210" as="targetPoint"/>
                    </mxGeometry>
                </mxCell>
                <mxCell id="ZFWa3hAxqIq1_LuUujdI-11" value="Click on login button" style="text;html=1;align=center;verticalAlign=middle;resizable=0;points=[];autosize=1;strokeColor=none;" parent="ZFWa3hAxqIq1_LuUujdI-1" vertex="1">
                    <mxGeometry x="140" y="190" width="120" height="20" as="geometry"/>
                </mxCell>
                <mxCell id="ZFWa3hAxqIq1_LuUujdI-12" value="" style="html=1;verticalAlign=bottom;labelBackgroundColor=none;endArrow=block;endFill=1;dashed=1;strokeWidth=1;" parent="ZFWa3hAxqIq1_LuUujdI-1" source="ZFWa3hAxqIq1_LuUujdI-4" edge="1">
                    <mxGeometry width="160" relative="1" as="geometry">
                        <mxPoint x="180" y="200" as="sourcePoint"/>
                        <mxPoint x="120" y="250" as="targetPoint"/>
                        <Array as="points">
                            <mxPoint x="360" y="250"/>
                        </Array>
                    </mxGeometry>
                </mxCell>
                <mxCell id="ZFWa3hAxqIq1_LuUujdI-13" value="display login page" style="text;html=1;align=center;verticalAlign=middle;resizable=0;points=[];autosize=1;strokeColor=none;" parent="ZFWa3hAxqIq1_LuUujdI-1" vertex="1">
                    <mxGeometry x="145" y="230" width="110" height="20" as="geometry"/>
                </mxCell>
                <mxCell id="ZFWa3hAxqIq1_LuUujdI-18" value="" style="html=1;verticalAlign=bottom;labelBackgroundColor=none;endArrow=block;endFill=1;strokeWidth=1;" parent="ZFWa3hAxqIq1_LuUujdI-1" edge="1">
                    <mxGeometry width="160" relative="1" as="geometry">
                        <mxPoint x="130" y="290" as="sourcePoint"/>
                        <mxPoint x="389.5" y="290" as="targetPoint"/>
                    </mxGeometry>
                </mxCell>
                <mxCell id="ZFWa3hAxqIq1_LuUujdI-19" value="&lt;span style=&quot;color: rgb(0 , 0 , 0) ; font-family: &amp;#34;helvetica&amp;#34; ; font-size: 12px ; font-style: normal ; font-weight: 400 ; letter-spacing: normal ; text-align: center ; text-indent: 0px ; text-transform: none ; word-spacing: 0px ; background-color: rgb(248 , 249 , 250) ; display: inline ; float: none&quot;&gt;submit login details&lt;/span&gt;" style="text;whiteSpace=wrap;html=1;" parent="ZFWa3hAxqIq1_LuUujdI-1" vertex="1">
                    <mxGeometry x="145" y="268" width="130" height="30" as="geometry"/>
                </mxCell>
                <mxCell id="ZFWa3hAxqIq1_LuUujdI-22" value="alt" style="shape=umlFrame;tabWidth=110;tabHeight=30;tabPosition=left;html=1;boundedLbl=1;labelInHeader=1;width=50;height=30;labelBackgroundColor=#ffffff;" parent="ZFWa3hAxqIq1_LuUujdI-1" vertex="1">
                    <mxGeometry x="100" y="350" width="610" height="250" as="geometry"/>
                </mxCell>
                <mxCell id="ZFWa3hAxqIq1_LuUujdI-23" value="[If username/password is empty/is not correct]" style="text" parent="ZFWa3hAxqIq1_LuUujdI-22" vertex="1">
                    <mxGeometry width="100" height="20" relative="1" as="geometry">
                        <mxPoint x="20" y="40" as="offset"/>
                    </mxGeometry>
                </mxCell>
                <mxCell id="ZFWa3hAxqIq1_LuUujdI-24" value="[If username and password are correct]" style="line;strokeWidth=1;dashed=1;labelPosition=center;verticalLabelPosition=bottom;align=left;verticalAlign=top;spacingLeft=20;spacingTop=15;" parent="ZFWa3hAxqIq1_LuUujdI-22" vertex="1">
                    <mxGeometry y="125" width="609.9999999999999" height="10" as="geometry"/>
                </mxCell>
                <mxCell id="ZFWa3hAxqIq1_LuUujdI-26" value="reject login request" style="text;html=1;align=center;verticalAlign=middle;resizable=0;points=[];autosize=1;strokeColor=none;" parent="ZFWa3hAxqIq1_LuUujdI-22" vertex="1">
                    <mxGeometry x="290" y="50" width="120" height="20" as="geometry"/>
                </mxCell>
                <mxCell id="ZFWa3hAxqIq1_LuUujdI-29" value="" style="html=1;verticalAlign=bottom;labelBackgroundColor=none;endArrow=block;endFill=1;dashed=1;strokeWidth=1;" parent="ZFWa3hAxqIq1_LuUujdI-22" edge="1">
                    <mxGeometry width="160" relative="1" as="geometry">
                        <mxPoint x="550" y="70" as="sourcePoint"/>
                        <mxPoint x="290" y="70" as="targetPoint"/>
                        <Array as="points">
                            <mxPoint x="530" y="70"/>
                        </Array>
                    </mxGeometry>
                </mxCell>
                <mxCell id="ZFWa3hAxqIq1_LuUujdI-30" value="send an error message" style="text;html=1;align=center;verticalAlign=middle;resizable=0;points=[];autosize=1;strokeColor=none;" parent="ZFWa3hAxqIq1_LuUujdI-22" vertex="1">
                    <mxGeometry x="20" y="80" width="140" height="20" as="geometry"/>
                </mxCell>
                <mxCell id="ZFWa3hAxqIq1_LuUujdI-32" value="accept login request" style="text;html=1;align=center;verticalAlign=middle;resizable=0;points=[];autosize=1;strokeColor=none;" parent="ZFWa3hAxqIq1_LuUujdI-22" vertex="1">
                    <mxGeometry x="290" y="180" width="120" height="20" as="geometry"/>
                </mxCell>
                <mxCell id="ZFWa3hAxqIq1_LuUujdI-34" value="redirect to homepage" style="text;html=1;align=center;verticalAlign=middle;resizable=0;points=[];autosize=1;strokeColor=none;" parent="ZFWa3hAxqIq1_LuUujdI-22" vertex="1">
                    <mxGeometry x="25" y="210" width="130" height="20" as="geometry"/>
                </mxCell>
                <mxCell id="ZFWa3hAxqIq1_LuUujdI-25" value="" style="html=1;verticalAlign=bottom;labelBackgroundColor=none;endArrow=block;endFill=1;dashed=1;strokeWidth=1;" parent="ZFWa3hAxqIq1_LuUujdI-1" edge="1">
                    <mxGeometry width="160" relative="1" as="geometry">
                        <mxPoint x="389.5" y="450" as="sourcePoint"/>
                        <mxPoint x="120" y="450" as="targetPoint"/>
                        <Array as="points">
                            <mxPoint x="360" y="450"/>
                        </Array>
                    </mxGeometry>
                </mxCell>
                <mxCell id="ZFWa3hAxqIq1_LuUujdI-27" value="" style="html=1;verticalAlign=bottom;labelBackgroundColor=none;endArrow=block;endFill=1;strokeWidth=1;" parent="ZFWa3hAxqIq1_LuUujdI-1" edge="1">
                    <mxGeometry width="160" relative="1" as="geometry">
                        <mxPoint x="390" y="330" as="sourcePoint"/>
                        <mxPoint x="649.5" y="330" as="targetPoint"/>
                    </mxGeometry>
                </mxCell>
                <mxCell id="ZFWa3hAxqIq1_LuUujdI-28" value="search data" style="text;html=1;align=center;verticalAlign=middle;resizable=0;points=[];autosize=1;strokeColor=none;" parent="ZFWa3hAxqIq1_LuUujdI-1" vertex="1">
                    <mxGeometry x="400" y="310" width="80" height="20" as="geometry"/>
                </mxCell>
                <mxCell id="ZFWa3hAxqIq1_LuUujdI-31" value="" style="html=1;verticalAlign=bottom;labelBackgroundColor=none;endArrow=block;endFill=1;dashed=1;strokeWidth=1;" parent="ZFWa3hAxqIq1_LuUujdI-1" edge="1">
                    <mxGeometry width="160" relative="1" as="geometry">
                        <mxPoint x="650" y="550" as="sourcePoint"/>
                        <mxPoint x="390" y="550" as="targetPoint"/>
                        <Array as="points">
                            <mxPoint x="630" y="550"/>
                        </Array>
                    </mxGeometry>
                </mxCell>
                <mxCell id="ZFWa3hAxqIq1_LuUujdI-33" value="" style="html=1;verticalAlign=bottom;labelBackgroundColor=none;endArrow=block;endFill=1;dashed=1;strokeWidth=1;" parent="ZFWa3hAxqIq1_LuUujdI-1" edge="1">
                    <mxGeometry width="160" relative="1" as="geometry">
                        <mxPoint x="389.5" y="580" as="sourcePoint"/>
                        <mxPoint x="120" y="580" as="targetPoint"/>
                        <Array as="points">
                            <mxPoint x="360" y="580"/>
                        </Array>
                    </mxGeometry>
                </mxCell>
                <mxCell id="OTHgitzxaU4bWfU-Ut1H-0" value="" style="rounded=0;whiteSpace=wrap;html=1;labelBackgroundColor=#ffffff;" parent="ZFWa3hAxqIq1_LuUujdI-1" vertex="1">
                    <mxGeometry x="389" y="200" width="5" height="390" as="geometry"/>
                </mxCell>
                <mxCell id="OTHgitzxaU4bWfU-Ut1H-2" value="" style="rounded=0;whiteSpace=wrap;html=1;labelBackgroundColor=#ffffff;" parent="ZFWa3hAxqIq1_LuUujdI-1" vertex="1">
                    <mxGeometry x="650" y="320" width="5" height="240" as="geometry"/>
                </mxCell>
                <mxCell id="thWIMeaPTty77VuY-Efb-1" value="&lt;b&gt;sequence diagram: login&lt;/b&gt;" style="text;html=1;align=center;verticalAlign=middle;resizable=0;points=[];autosize=1;strokeColor=none;" parent="ZFWa3hAxqIq1_LuUujdI-1" vertex="1">
                    <mxGeometry x="50" y="40" width="160" height="20" as="geometry"/>
                </mxCell>
            </root>
        </mxGraphModel>
    </diagram>
    <diagram id="MfufB7JO0Rw8EC7CHTJB" name="sequence diagram: reset password">
        <mxGraphModel dx="592" dy="357" grid="1" gridSize="10" guides="1" tooltips="1" connect="1" arrows="1" fold="1" page="1" pageScale="1" pageWidth="827" pageHeight="1169" math="0" shadow="0">
            <root>
                <mxCell id="crXMJMnj2lOMebfyX-tA-0"/>
                <mxCell id="crXMJMnj2lOMebfyX-tA-1" parent="crXMJMnj2lOMebfyX-tA-0"/>
                <mxCell id="crXMJMnj2lOMebfyX-tA-2" value="User" style="shape=umlActor;verticalLabelPosition=bottom;verticalAlign=top;html=1;outlineConnect=0;labelBackgroundColor=#ffffff;" parent="crXMJMnj2lOMebfyX-tA-1" vertex="1">
                    <mxGeometry x="140" y="120" width="30" height="60" as="geometry"/>
                </mxCell>
                <mxCell id="mZV6NPHmenUQVZHJTbyJ-3" value="System" style="shape=umlLifeline;perimeter=lifelinePerimeter;whiteSpace=wrap;html=1;container=1;collapsible=0;recursiveResize=0;outlineConnect=0;labelBackgroundColor=#ffffff;" parent="crXMJMnj2lOMebfyX-tA-1" vertex="1">
                    <mxGeometry x="364" y="160" width="100" height="660" as="geometry"/>
                </mxCell>
                <mxCell id="mZV6NPHmenUQVZHJTbyJ-5" value="Database" style="shape=umlLifeline;perimeter=lifelinePerimeter;whiteSpace=wrap;html=1;container=1;collapsible=0;recursiveResize=0;outlineConnect=0;labelBackgroundColor=#ffffff;" parent="crXMJMnj2lOMebfyX-tA-1" vertex="1">
                    <mxGeometry x="620" y="160" width="100" height="660" as="geometry"/>
                </mxCell>
                <mxCell id="lDs5bVVqsiz2DxUqZ55h-0" value="User" style="shape=umlActor;verticalLabelPosition=bottom;verticalAlign=top;html=1;outlineConnect=0;labelBackgroundColor=#ffffff;" parent="mZV6NPHmenUQVZHJTbyJ-5" vertex="1">
                    <mxGeometry x="-480" y="-40" width="30" height="60" as="geometry"/>
                </mxCell>
                <mxCell id="lDs5bVVqsiz2DxUqZ55h-1" value="System" style="shape=umlLifeline;perimeter=lifelinePerimeter;whiteSpace=wrap;html=1;container=1;collapsible=0;recursiveResize=0;outlineConnect=0;labelBackgroundColor=#ffffff;" parent="mZV6NPHmenUQVZHJTbyJ-5" vertex="1">
                    <mxGeometry x="-256" width="100" height="660" as="geometry"/>
                </mxCell>
                <mxCell id="mZV6NPHmenUQVZHJTbyJ-6" value="" style="endArrow=none;dashed=1;html=1;strokeWidth=1;startArrow=none;" parent="crXMJMnj2lOMebfyX-tA-1" edge="1">
                    <mxGeometry width="50" height="50" relative="1" as="geometry">
                        <mxPoint x="160" y="856.6666870117188" as="sourcePoint"/>
                        <mxPoint x="160" y="200" as="targetPoint"/>
                    </mxGeometry>
                </mxCell>
                <mxCell id="XjZrfiyLX6TH8FmIKiDv-0" value="" style="html=1;verticalAlign=bottom;labelBackgroundColor=none;endArrow=block;endFill=1;strokeWidth=1;" parent="crXMJMnj2lOMebfyX-tA-1" target="mZV6NPHmenUQVZHJTbyJ-3" edge="1">
                    <mxGeometry width="160" relative="1" as="geometry">
                        <mxPoint x="160" y="240" as="sourcePoint"/>
                        <mxPoint x="400" y="240" as="targetPoint"/>
                    </mxGeometry>
                </mxCell>
                <mxCell id="XjZrfiyLX6TH8FmIKiDv-1" value="click on password reset button&amp;nbsp;" style="text;html=1;align=center;verticalAlign=middle;resizable=0;points=[];autosize=1;strokeColor=none;" parent="crXMJMnj2lOMebfyX-tA-1" vertex="1">
                    <mxGeometry x="160" y="220" width="180" height="20" as="geometry"/>
                </mxCell>
                <mxCell id="XjZrfiyLX6TH8FmIKiDv-2" value="" style="html=1;verticalAlign=bottom;labelBackgroundColor=none;endArrow=block;endFill=1;dashed=1;strokeWidth=1;" parent="crXMJMnj2lOMebfyX-tA-1" source="mZV6NPHmenUQVZHJTbyJ-3" edge="1">
                    <mxGeometry width="160" relative="1" as="geometry">
                        <mxPoint x="200" y="210" as="sourcePoint"/>
                        <mxPoint x="160" y="270" as="targetPoint"/>
                        <Array as="points">
                            <mxPoint x="414" y="270"/>
                        </Array>
                    </mxGeometry>
                </mxCell>
                <mxCell id="XjZrfiyLX6TH8FmIKiDv-3" value="display password reset form" style="text;html=1;align=center;verticalAlign=middle;resizable=0;points=[];autosize=1;strokeColor=none;" parent="crXMJMnj2lOMebfyX-tA-1" vertex="1">
                    <mxGeometry x="170" y="250" width="160" height="20" as="geometry"/>
                </mxCell>
                <mxCell id="XjZrfiyLX6TH8FmIKiDv-4" value="" style="html=1;verticalAlign=bottom;labelBackgroundColor=none;endArrow=block;endFill=1;strokeWidth=1;" parent="crXMJMnj2lOMebfyX-tA-1" edge="1">
                    <mxGeometry width="160" relative="1" as="geometry">
                        <mxPoint x="160" y="310" as="sourcePoint"/>
                        <mxPoint x="413.5" y="310" as="targetPoint"/>
                    </mxGeometry>
                </mxCell>
                <mxCell id="XjZrfiyLX6TH8FmIKiDv-5" value="submit filled out form" style="text;html=1;align=center;verticalAlign=middle;resizable=0;points=[];autosize=1;strokeColor=none;" parent="crXMJMnj2lOMebfyX-tA-1" vertex="1">
                    <mxGeometry x="165" y="290" width="130" height="20" as="geometry"/>
                </mxCell>
                <mxCell id="XjZrfiyLX6TH8FmIKiDv-6" value="" style="html=1;verticalAlign=bottom;labelBackgroundColor=none;endArrow=block;endFill=1;strokeWidth=1;" parent="crXMJMnj2lOMebfyX-tA-1" edge="1">
                    <mxGeometry width="160" relative="1" as="geometry">
                        <mxPoint x="414" y="340" as="sourcePoint"/>
                        <mxPoint x="667.5" y="340" as="targetPoint"/>
                    </mxGeometry>
                </mxCell>
                <mxCell id="XjZrfiyLX6TH8FmIKiDv-7" value="check if the email address is in the database" style="text;html=1;align=center;verticalAlign=middle;resizable=0;points=[];autosize=1;strokeColor=none;" parent="crXMJMnj2lOMebfyX-tA-1" vertex="1">
                    <mxGeometry x="414" y="320" width="250" height="20" as="geometry"/>
                </mxCell>
                <mxCell id="XjZrfiyLX6TH8FmIKiDv-8" value="alt" style="shape=umlFrame;tabWidth=110;tabHeight=30;tabPosition=left;html=1;boundedLbl=1;labelInHeader=1;width=55;height=30;labelBackgroundColor=#ffffff;" parent="crXMJMnj2lOMebfyX-tA-1" vertex="1">
                    <mxGeometry x="105" y="380" width="595" height="250" as="geometry"/>
                </mxCell>
                <mxCell id="XjZrfiyLX6TH8FmIKiDv-10" value="[If the email address is found in the database]" style="line;strokeWidth=1;dashed=1;labelPosition=center;verticalLabelPosition=bottom;align=left;verticalAlign=top;spacingLeft=20;spacingTop=15;" parent="XjZrfiyLX6TH8FmIKiDv-8" vertex="1">
                    <mxGeometry y="125" width="595.0000000000001" height="10" as="geometry"/>
                </mxCell>
                <mxCell id="XjZrfiyLX6TH8FmIKiDv-9" value="[If the email address does not exist in the database]" style="text;labelBackgroundColor=#ffffff;" parent="XjZrfiyLX6TH8FmIKiDv-8" vertex="1">
                    <mxGeometry width="100" height="20" relative="1" as="geometry">
                        <mxPoint x="20" y="40" as="offset"/>
                    </mxGeometry>
                </mxCell>
                <mxCell id="NRrow_O-diC2Ol22vq-0-1" value="reject the request" style="text;html=1;align=center;verticalAlign=middle;resizable=0;points=[];autosize=1;strokeColor=none;" parent="XjZrfiyLX6TH8FmIKiDv-8" vertex="1">
                    <mxGeometry x="379" y="60" width="110" height="20" as="geometry"/>
                </mxCell>
                <mxCell id="NRrow_O-diC2Ol22vq-0-2" value="" style="html=1;verticalAlign=bottom;labelBackgroundColor=none;endArrow=block;endFill=1;dashed=1;strokeWidth=1;" parent="XjZrfiyLX6TH8FmIKiDv-8" edge="1">
                    <mxGeometry width="160" relative="1" as="geometry">
                        <mxPoint x="308.5" y="110" as="sourcePoint"/>
                        <mxPoint x="55" y="110" as="targetPoint"/>
                        <Array as="points">
                            <mxPoint x="309" y="110"/>
                        </Array>
                    </mxGeometry>
                </mxCell>
                <mxCell id="NRrow_O-diC2Ol22vq-0-3" value="send an error message" style="text;html=1;align=center;verticalAlign=middle;resizable=0;points=[];autosize=1;strokeColor=none;" parent="XjZrfiyLX6TH8FmIKiDv-8" vertex="1">
                    <mxGeometry x="75" y="90" width="140" height="20" as="geometry"/>
                </mxCell>
                <mxCell id="NRrow_O-diC2Ol22vq-0-5" value="accept request" style="text;html=1;align=center;verticalAlign=middle;resizable=0;points=[];autosize=1;strokeColor=none;" parent="XjZrfiyLX6TH8FmIKiDv-8" vertex="1">
                    <mxGeometry x="389" y="170" width="90" height="20" as="geometry"/>
                </mxCell>
                <mxCell id="NRrow_O-diC2Ol22vq-0-7" value="send recovery email" style="text;html=1;align=center;verticalAlign=middle;resizable=0;points=[];autosize=1;strokeColor=none;" parent="XjZrfiyLX6TH8FmIKiDv-8" vertex="1">
                    <mxGeometry x="75" y="195" width="120" height="20" as="geometry"/>
                </mxCell>
                <mxCell id="NRrow_O-diC2Ol22vq-0-0" value="" style="html=1;verticalAlign=bottom;labelBackgroundColor=none;endArrow=block;endFill=1;dashed=1;strokeWidth=1;" parent="crXMJMnj2lOMebfyX-tA-1" edge="1">
                    <mxGeometry width="160" relative="1" as="geometry">
                        <mxPoint x="667.5" y="460" as="sourcePoint"/>
                        <mxPoint x="414" y="460" as="targetPoint"/>
                        <Array as="points">
                            <mxPoint x="668" y="460"/>
                        </Array>
                    </mxGeometry>
                </mxCell>
                <mxCell id="NRrow_O-diC2Ol22vq-0-4" value="" style="html=1;verticalAlign=bottom;labelBackgroundColor=none;endArrow=block;endFill=1;dashed=1;strokeWidth=1;" parent="crXMJMnj2lOMebfyX-tA-1" edge="1">
                    <mxGeometry width="160" relative="1" as="geometry">
                        <mxPoint x="667.5" y="570" as="sourcePoint"/>
                        <mxPoint x="414" y="570" as="targetPoint"/>
                        <Array as="points">
                            <mxPoint x="668" y="570"/>
                        </Array>
                    </mxGeometry>
                </mxCell>
                <mxCell id="NRrow_O-diC2Ol22vq-0-6" value="" style="html=1;verticalAlign=bottom;labelBackgroundColor=none;endArrow=block;endFill=1;dashed=1;strokeWidth=1;" parent="crXMJMnj2lOMebfyX-tA-1" edge="1">
                    <mxGeometry width="160" relative="1" as="geometry">
                        <mxPoint x="413.5" y="600" as="sourcePoint"/>
                        <mxPoint x="160" y="600" as="targetPoint"/>
                        <Array as="points">
                            <mxPoint x="414" y="600"/>
                        </Array>
                    </mxGeometry>
                </mxCell>
                <mxCell id="NRrow_O-diC2Ol22vq-0-8" value="" style="html=1;verticalAlign=bottom;labelBackgroundColor=none;endArrow=block;endFill=1;strokeWidth=1;" parent="crXMJMnj2lOMebfyX-tA-1" edge="1">
                    <mxGeometry width="160" relative="1" as="geometry">
                        <mxPoint x="160" y="660" as="sourcePoint"/>
                        <mxPoint x="413.5" y="660" as="targetPoint"/>
                    </mxGeometry>
                </mxCell>
                <mxCell id="NRrow_O-diC2Ol22vq-0-9" value="click on the link&amp;nbsp;" style="text;html=1;align=center;verticalAlign=middle;resizable=0;points=[];autosize=1;strokeColor=none;" parent="crXMJMnj2lOMebfyX-tA-1" vertex="1">
                    <mxGeometry x="170" y="640" width="100" height="20" as="geometry"/>
                </mxCell>
                <mxCell id="NRrow_O-diC2Ol22vq-0-10" value="" style="html=1;verticalAlign=bottom;labelBackgroundColor=none;endArrow=block;endFill=1;dashed=1;strokeWidth=1;" parent="crXMJMnj2lOMebfyX-tA-1" edge="1">
                    <mxGeometry width="160" relative="1" as="geometry">
                        <mxPoint x="413.5" y="690" as="sourcePoint"/>
                        <mxPoint x="160" y="690" as="targetPoint"/>
                        <Array as="points">
                            <mxPoint x="414" y="690"/>
                        </Array>
                    </mxGeometry>
                </mxCell>
                <mxCell id="NRrow_O-diC2Ol22vq-0-11" value="return a form" style="text;html=1;align=center;verticalAlign=middle;resizable=0;points=[];autosize=1;strokeColor=none;" parent="crXMJMnj2lOMebfyX-tA-1" vertex="1">
                    <mxGeometry x="170" y="670" width="80" height="20" as="geometry"/>
                </mxCell>
                <mxCell id="NRrow_O-diC2Ol22vq-0-12" value="" style="html=1;verticalAlign=bottom;labelBackgroundColor=none;endArrow=block;endFill=1;strokeWidth=1;" parent="crXMJMnj2lOMebfyX-tA-1" edge="1">
                    <mxGeometry width="160" relative="1" as="geometry">
                        <mxPoint x="160" y="730" as="sourcePoint"/>
                        <mxPoint x="413.5" y="730" as="targetPoint"/>
                    </mxGeometry>
                </mxCell>
                <mxCell id="NRrow_O-diC2Ol22vq-0-13" value="enter new password" style="text;html=1;align=center;verticalAlign=middle;resizable=0;points=[];autosize=1;strokeColor=none;" parent="crXMJMnj2lOMebfyX-tA-1" vertex="1">
                    <mxGeometry x="160" y="710" width="120" height="20" as="geometry"/>
                </mxCell>
                <mxCell id="NRrow_O-diC2Ol22vq-0-14" value="" style="html=1;verticalAlign=bottom;labelBackgroundColor=none;endArrow=block;endFill=1;strokeWidth=1;" parent="crXMJMnj2lOMebfyX-tA-1" edge="1">
                    <mxGeometry width="160" relative="1" as="geometry">
                        <mxPoint x="414" y="740" as="sourcePoint"/>
                        <mxPoint x="667.5" y="740" as="targetPoint"/>
                    </mxGeometry>
                </mxCell>
                <mxCell id="NRrow_O-diC2Ol22vq-0-15" value="update new password" style="text;html=1;align=center;verticalAlign=middle;resizable=0;points=[];autosize=1;strokeColor=none;" parent="crXMJMnj2lOMebfyX-tA-1" vertex="1">
                    <mxGeometry x="414" y="720" width="130" height="20" as="geometry"/>
                </mxCell>
                <mxCell id="NRrow_O-diC2Ol22vq-0-16" value="" style="html=1;verticalAlign=bottom;labelBackgroundColor=none;endArrow=block;endFill=1;dashed=1;strokeWidth=1;" parent="crXMJMnj2lOMebfyX-tA-1" edge="1">
                    <mxGeometry width="160" relative="1" as="geometry">
                        <mxPoint x="665.5" y="770" as="sourcePoint"/>
                        <mxPoint x="412" y="770" as="targetPoint"/>
                        <Array as="points">
                            <mxPoint x="666" y="770"/>
                            <mxPoint x="558" y="770"/>
                        </Array>
                    </mxGeometry>
                </mxCell>
                <mxCell id="NRrow_O-diC2Ol22vq-0-17" value="password is saved" style="text;html=1;align=center;verticalAlign=middle;resizable=0;points=[];autosize=1;strokeColor=none;" parent="crXMJMnj2lOMebfyX-tA-1" vertex="1">
                    <mxGeometry x="414" y="750" width="110" height="20" as="geometry"/>
                </mxCell>
                <mxCell id="NRrow_O-diC2Ol22vq-0-18" value="" style="html=1;verticalAlign=bottom;labelBackgroundColor=none;endArrow=block;endFill=1;dashed=1;strokeWidth=1;" parent="crXMJMnj2lOMebfyX-tA-1" edge="1">
                    <mxGeometry width="160" relative="1" as="geometry">
                        <mxPoint x="413.5" y="790" as="sourcePoint"/>
                        <mxPoint x="160" y="790" as="targetPoint"/>
                        <Array as="points">
                            <mxPoint x="414" y="790"/>
                            <mxPoint x="306" y="790"/>
                        </Array>
                    </mxGeometry>
                </mxCell>
                <mxCell id="NRrow_O-diC2Ol22vq-0-20" value="&lt;b&gt;sequence diagram: reset password&lt;/b&gt;" style="text;html=1;align=center;verticalAlign=middle;resizable=0;points=[];autosize=1;strokeColor=none;" parent="crXMJMnj2lOMebfyX-tA-1" vertex="1">
                    <mxGeometry x="140" y="40" width="220" height="20" as="geometry"/>
                </mxCell>
                <mxCell id="N0PRN35GK2ZDGf_3HuoY-0" value="" style="rounded=0;whiteSpace=wrap;html=1;" parent="crXMJMnj2lOMebfyX-tA-1" vertex="1">
                    <mxGeometry x="409" y="225" width="10" height="565" as="geometry"/>
                </mxCell>
                <mxCell id="NRrow_O-diC2Ol22vq-0-19" value="show message password changed sucessfully" style="text;html=1;align=center;verticalAlign=middle;resizable=0;points=[];autosize=1;strokeColor=none;" parent="crXMJMnj2lOMebfyX-tA-1" vertex="1">
                    <mxGeometry x="160" y="770" width="260" height="20" as="geometry"/>
                </mxCell>
                <mxCell id="N0PRN35GK2ZDGf_3HuoY-1" value="" style="rounded=0;whiteSpace=wrap;html=1;" parent="crXMJMnj2lOMebfyX-tA-1" vertex="1">
                    <mxGeometry x="665" y="330" width="10" height="450" as="geometry"/>
                </mxCell>
            </root>
        </mxGraphModel>
    </diagram>
    <diagram id="b7A1k1wTtpe7XCofy618" name="sequence diagram:contact">
        <mxGraphModel dx="592" dy="357" grid="1" gridSize="10" guides="1" tooltips="1" connect="1" arrows="1" fold="1" page="1" pageScale="1" pageWidth="827" pageHeight="1169" math="0" shadow="0">
            <root>
                <mxCell id="TnCAJYRuWz4W-IveGsaP-0"/>
                <mxCell id="TnCAJYRuWz4W-IveGsaP-1" parent="TnCAJYRuWz4W-IveGsaP-0"/>
                <mxCell id="35p6AOCIdavLo2vG2ZgX-0" value="Email" style="shape=umlLifeline;perimeter=lifelinePerimeter;whiteSpace=wrap;html=1;container=1;collapsible=0;recursiveResize=0;outlineConnect=0;labelBackgroundColor=#ffffff;" parent="TnCAJYRuWz4W-IveGsaP-1" vertex="1">
                    <mxGeometry x="620" y="160" width="100" height="660" as="geometry"/>
                </mxCell>
                <mxCell id="35p6AOCIdavLo2vG2ZgX-1" value="User" style="shape=umlActor;verticalLabelPosition=bottom;verticalAlign=top;html=1;outlineConnect=0;labelBackgroundColor=#ffffff;" parent="35p6AOCIdavLo2vG2ZgX-0" vertex="1">
                    <mxGeometry x="-480" y="-40" width="30" height="60" as="geometry"/>
                </mxCell>
                <mxCell id="35p6AOCIdavLo2vG2ZgX-2" value="System" style="shape=umlLifeline;perimeter=lifelinePerimeter;whiteSpace=wrap;html=1;container=1;collapsible=0;recursiveResize=0;outlineConnect=0;labelBackgroundColor=#ffffff;" parent="35p6AOCIdavLo2vG2ZgX-0" vertex="1">
                    <mxGeometry x="-256" width="100" height="660" as="geometry"/>
                </mxCell>
                <mxCell id="a8FyUMMvlafi2WFV8MkX-0" value="User" style="shape=umlActor;verticalLabelPosition=bottom;verticalAlign=top;html=1;outlineConnect=0;labelBackgroundColor=#ffffff;" parent="35p6AOCIdavLo2vG2ZgX-0" vertex="1">
                    <mxGeometry x="-480" y="-40" width="30" height="60" as="geometry"/>
                </mxCell>
                <mxCell id="a8FyUMMvlafi2WFV8MkX-1" value="System" style="shape=umlLifeline;perimeter=lifelinePerimeter;whiteSpace=wrap;html=1;container=1;collapsible=0;recursiveResize=0;outlineConnect=0;labelBackgroundColor=#ffffff;" parent="35p6AOCIdavLo2vG2ZgX-0" vertex="1">
                    <mxGeometry x="-256" width="100" height="660" as="geometry"/>
                </mxCell>
                <mxCell id="ypZs7OPoer9vOyjigucl-0" value="" style="endArrow=none;dashed=1;html=1;strokeWidth=1;startArrow=none;" parent="TnCAJYRuWz4W-IveGsaP-1" edge="1">
                    <mxGeometry width="50" height="50" relative="1" as="geometry">
                        <mxPoint x="160" y="856.6666870117188" as="sourcePoint"/>
                        <mxPoint x="160" y="200" as="targetPoint"/>
                    </mxGeometry>
                </mxCell>
                <mxCell id="bHouoUzGrAH-tyEX8PsI-0" value="" style="html=1;verticalAlign=bottom;labelBackgroundColor=none;endArrow=block;endFill=1;strokeWidth=1;" parent="TnCAJYRuWz4W-IveGsaP-1" edge="1">
                    <mxGeometry width="160" relative="1" as="geometry">
                        <mxPoint x="160" y="240" as="sourcePoint"/>
                        <mxPoint x="413.5" y="240" as="targetPoint"/>
                    </mxGeometry>
                </mxCell>
                <mxCell id="bHouoUzGrAH-tyEX8PsI-1" value="" style="html=1;verticalAlign=bottom;labelBackgroundColor=none;endArrow=block;endFill=1;dashed=1;strokeWidth=1;" parent="TnCAJYRuWz4W-IveGsaP-1" edge="1">
                    <mxGeometry width="160" relative="1" as="geometry">
                        <mxPoint x="413.5" y="270" as="sourcePoint"/>
                        <mxPoint x="160" y="270" as="targetPoint"/>
                        <Array as="points">
                            <mxPoint x="414" y="270"/>
                        </Array>
                    </mxGeometry>
                </mxCell>
                <mxCell id="bHouoUzGrAH-tyEX8PsI-2" value="click on contact page" style="text;html=1;align=center;verticalAlign=middle;resizable=0;points=[];autosize=1;strokeColor=none;" parent="TnCAJYRuWz4W-IveGsaP-1" vertex="1">
                    <mxGeometry x="210" y="220" width="130" height="20" as="geometry"/>
                </mxCell>
                <mxCell id="bHouoUzGrAH-tyEX8PsI-3" value="display contact page" style="text;html=1;align=center;verticalAlign=middle;resizable=0;points=[];autosize=1;strokeColor=none;" parent="TnCAJYRuWz4W-IveGsaP-1" vertex="1">
                    <mxGeometry x="170" y="250" width="120" height="20" as="geometry"/>
                </mxCell>
                <mxCell id="bHouoUzGrAH-tyEX8PsI-4" value="" style="html=1;verticalAlign=bottom;labelBackgroundColor=none;endArrow=block;endFill=1;strokeWidth=1;" parent="TnCAJYRuWz4W-IveGsaP-1" edge="1">
                    <mxGeometry width="160" relative="1" as="geometry">
                        <mxPoint x="160" y="310" as="sourcePoint"/>
                        <mxPoint x="413.5" y="310" as="targetPoint"/>
                    </mxGeometry>
                </mxCell>
                <mxCell id="bHouoUzGrAH-tyEX8PsI-5" value="submit filled out form" style="text;html=1;align=center;verticalAlign=middle;resizable=0;points=[];autosize=1;strokeColor=none;" parent="TnCAJYRuWz4W-IveGsaP-1" vertex="1">
                    <mxGeometry x="210" y="290" width="130" height="20" as="geometry"/>
                </mxCell>
                <mxCell id="bHouoUzGrAH-tyEX8PsI-6" value="" style="html=1;verticalAlign=bottom;labelBackgroundColor=none;endArrow=block;endFill=1;strokeWidth=1;" parent="TnCAJYRuWz4W-IveGsaP-1" edge="1">
                    <mxGeometry width="160" relative="1" as="geometry">
                        <mxPoint x="414" y="330" as="sourcePoint"/>
                        <mxPoint x="417" y="378" as="targetPoint"/>
                        <Array as="points">
                            <mxPoint x="450" y="330"/>
                            <mxPoint x="450" y="378"/>
                        </Array>
                    </mxGeometry>
                </mxCell>
                <mxCell id="bHouoUzGrAH-tyEX8PsI-7" value="verify the information" style="text;html=1;align=center;verticalAlign=middle;resizable=0;points=[];autosize=1;strokeColor=none;" parent="TnCAJYRuWz4W-IveGsaP-1" vertex="1">
                    <mxGeometry x="450" y="340" width="130" height="20" as="geometry"/>
                </mxCell>
                <mxCell id="jc1OX1TTp7sSAaJcdXiY-0" value="alt" style="shape=umlFrame;tabWidth=110;tabHeight=30;tabPosition=left;html=1;boundedLbl=1;labelInHeader=1;width=50;height=30;labelBackgroundColor=#ffffff;" parent="TnCAJYRuWz4W-IveGsaP-1" vertex="1">
                    <mxGeometry x="130" y="400" width="610" height="250" as="geometry"/>
                </mxCell>
                <mxCell id="jc1OX1TTp7sSAaJcdXiY-1" value="[If there is any field empty]" style="text" parent="jc1OX1TTp7sSAaJcdXiY-0" vertex="1">
                    <mxGeometry width="100" height="20" relative="1" as="geometry">
                        <mxPoint x="20" y="40" as="offset"/>
                    </mxGeometry>
                </mxCell>
                <mxCell id="jc1OX1TTp7sSAaJcdXiY-2" value="[If all fields are filled out]" style="line;strokeWidth=1;dashed=1;labelPosition=center;verticalLabelPosition=bottom;align=left;verticalAlign=top;spacingLeft=20;spacingTop=15;" parent="jc1OX1TTp7sSAaJcdXiY-0" vertex="1">
                    <mxGeometry y="125" width="609.9999999999999" height="10" as="geometry"/>
                </mxCell>
                <mxCell id="jc1OX1TTp7sSAaJcdXiY-4" value="" style="html=1;verticalAlign=bottom;labelBackgroundColor=none;endArrow=block;endFill=1;dashed=1;strokeWidth=1;" parent="jc1OX1TTp7sSAaJcdXiY-0" edge="1">
                    <mxGeometry width="160" relative="1" as="geometry">
                        <mxPoint x="544" y="219.5" as="sourcePoint"/>
                        <mxPoint x="284" y="219.5" as="targetPoint"/>
                        <Array as="points">
                            <mxPoint x="524" y="219.5"/>
                        </Array>
                    </mxGeometry>
                </mxCell>
                <mxCell id="jc1OX1TTp7sSAaJcdXiY-5" value="send an error message" style="text;html=1;align=center;verticalAlign=middle;resizable=0;points=[];autosize=1;strokeColor=none;" parent="jc1OX1TTp7sSAaJcdXiY-0" vertex="1">
                    <mxGeometry x="40" y="90" width="140" height="20" as="geometry"/>
                </mxCell>
                <mxCell id="jc1OX1TTp7sSAaJcdXiY-6" value="send email" style="text;html=1;align=center;verticalAlign=middle;resizable=0;points=[];autosize=1;strokeColor=none;" parent="jc1OX1TTp7sSAaJcdXiY-0" vertex="1">
                    <mxGeometry x="315" y="165" width="70" height="20" as="geometry"/>
                </mxCell>
                <mxCell id="jc1OX1TTp7sSAaJcdXiY-7" value="send an auto response email" style="text;html=1;align=center;verticalAlign=middle;resizable=0;points=[];autosize=1;strokeColor=none;" parent="jc1OX1TTp7sSAaJcdXiY-0" vertex="1">
                    <mxGeometry x="40" y="210" width="170" height="20" as="geometry"/>
                </mxCell>
                <mxCell id="jc1OX1TTp7sSAaJcdXiY-8" value="" style="html=1;verticalAlign=bottom;labelBackgroundColor=none;endArrow=block;endFill=1;dashed=1;strokeWidth=1;" parent="TnCAJYRuWz4W-IveGsaP-1" edge="1">
                    <mxGeometry width="160" relative="1" as="geometry">
                        <mxPoint x="414" y="510" as="sourcePoint"/>
                        <mxPoint x="154" y="510" as="targetPoint"/>
                        <Array as="points">
                            <mxPoint x="394" y="510"/>
                        </Array>
                    </mxGeometry>
                </mxCell>
                <mxCell id="jc1OX1TTp7sSAaJcdXiY-9" value="" style="html=1;verticalAlign=bottom;labelBackgroundColor=none;endArrow=block;endFill=1;strokeWidth=1;" parent="TnCAJYRuWz4W-IveGsaP-1" edge="1">
                    <mxGeometry width="160" relative="1" as="geometry">
                        <mxPoint x="414" y="584" as="sourcePoint"/>
                        <mxPoint x="667.5" y="584" as="targetPoint"/>
                    </mxGeometry>
                </mxCell>
                <mxCell id="jc1OX1TTp7sSAaJcdXiY-10" value="return email status" style="text;html=1;align=center;verticalAlign=middle;resizable=0;points=[];autosize=1;strokeColor=none;" parent="TnCAJYRuWz4W-IveGsaP-1" vertex="1">
                    <mxGeometry x="420" y="600" width="110" height="20" as="geometry"/>
                </mxCell>
                <mxCell id="jc1OX1TTp7sSAaJcdXiY-11" value="" style="html=1;verticalAlign=bottom;labelBackgroundColor=none;endArrow=block;endFill=1;dashed=1;strokeWidth=1;" parent="TnCAJYRuWz4W-IveGsaP-1" edge="1">
                    <mxGeometry width="160" relative="1" as="geometry">
                        <mxPoint x="414" y="629.5" as="sourcePoint"/>
                        <mxPoint x="154" y="629.5" as="targetPoint"/>
                        <Array as="points">
                            <mxPoint x="394" y="629.5"/>
                        </Array>
                    </mxGeometry>
                </mxCell>
                <mxCell id="fRMwKnfXOHkxMseAe1Wj-0" value="&lt;b&gt;sequence diagram:contact&lt;/b&gt;" style="text;html=1;align=center;verticalAlign=middle;resizable=0;points=[];autosize=1;strokeColor=none;" parent="TnCAJYRuWz4W-IveGsaP-1" vertex="1">
                    <mxGeometry x="155" y="40" width="170" height="20" as="geometry"/>
                </mxCell>
                <mxCell id="kLyx3k39jboWo-t258jx-0" value="" style="rounded=0;whiteSpace=wrap;html=1;" parent="TnCAJYRuWz4W-IveGsaP-1" vertex="1">
                    <mxGeometry x="409" y="225" width="10" height="415" as="geometry"/>
                </mxCell>
                <mxCell id="kLyx3k39jboWo-t258jx-1" value="" style="rounded=0;whiteSpace=wrap;html=1;" parent="TnCAJYRuWz4W-IveGsaP-1" vertex="1">
                    <mxGeometry x="665" y="387.5" width="10" height="242.5" as="geometry"/>
                </mxCell>
            </root>
        </mxGraphModel>
    </diagram>
    <diagram id="-6ysfVPd3KJS3J3kbb12" name="sequence diagram: manage post">
        <mxGraphModel dx="592" dy="357" grid="1" gridSize="10" guides="1" tooltips="1" connect="1" arrows="1" fold="1" page="1" pageScale="1" pageWidth="827" pageHeight="1169" math="0" shadow="0">
            <root>
                <mxCell id="r9CPoT8zFpRNWmajDXhj-0"/>
                <mxCell id="r9CPoT8zFpRNWmajDXhj-1" parent="r9CPoT8zFpRNWmajDXhj-0"/>
                <mxCell id="NA7TbjJJ-2ZGqZ7PMx5w-0" value="Database" style="shape=umlLifeline;perimeter=lifelinePerimeter;whiteSpace=wrap;html=1;container=1;collapsible=0;recursiveResize=0;outlineConnect=0;labelBackgroundColor=#ffffff;" parent="r9CPoT8zFpRNWmajDXhj-1" vertex="1">
                    <mxGeometry x="620" y="160" width="100" height="990" as="geometry"/>
                </mxCell>
                <mxCell id="NA7TbjJJ-2ZGqZ7PMx5w-1" value="Administrator" style="shape=umlActor;verticalLabelPosition=bottom;verticalAlign=top;html=1;outlineConnect=0;labelBackgroundColor=#ffffff;" parent="NA7TbjJJ-2ZGqZ7PMx5w-0" vertex="1">
                    <mxGeometry x="-480" y="-40" width="30" height="60" as="geometry"/>
                </mxCell>
                <mxCell id="NA7TbjJJ-2ZGqZ7PMx5w-2" value="System" style="shape=umlLifeline;perimeter=lifelinePerimeter;whiteSpace=wrap;html=1;container=1;collapsible=0;recursiveResize=0;outlineConnect=0;labelBackgroundColor=#ffffff;" parent="NA7TbjJJ-2ZGqZ7PMx5w-0" vertex="1">
                    <mxGeometry x="-256" width="100" height="660" as="geometry"/>
                </mxCell>
                <mxCell id="NA7TbjJJ-2ZGqZ7PMx5w-3" value="" style="shape=umlActor;verticalLabelPosition=bottom;verticalAlign=top;html=1;outlineConnect=0;labelBackgroundColor=#ffffff;" parent="NA7TbjJJ-2ZGqZ7PMx5w-0" vertex="1">
                    <mxGeometry x="-480" y="-40" width="30" height="60" as="geometry"/>
                </mxCell>
                <mxCell id="NA7TbjJJ-2ZGqZ7PMx5w-4" value="System" style="shape=umlLifeline;perimeter=lifelinePerimeter;whiteSpace=wrap;html=1;container=1;collapsible=0;recursiveResize=0;outlineConnect=0;labelBackgroundColor=#ffffff;" parent="NA7TbjJJ-2ZGqZ7PMx5w-0" vertex="1">
                    <mxGeometry x="-256" width="100" height="990" as="geometry"/>
                </mxCell>
                <mxCell id="6lrd0Z5OZvClW3uv_I8u-0" value="" style="endArrow=none;dashed=1;html=1;strokeWidth=1;startArrow=none;" parent="r9CPoT8zFpRNWmajDXhj-1" edge="1">
                    <mxGeometry width="50" height="50" relative="1" as="geometry">
                        <mxPoint x="160" y="1150" as="sourcePoint"/>
                        <mxPoint x="160" y="200" as="targetPoint"/>
                    </mxGeometry>
                </mxCell>
                <mxCell id="KgVyzV7bRPUq7l_E59am-0" value="" style="html=1;verticalAlign=bottom;labelBackgroundColor=none;endArrow=block;endFill=1;strokeWidth=1;" parent="r9CPoT8zFpRNWmajDXhj-1" edge="1">
                    <mxGeometry width="160" relative="1" as="geometry">
                        <mxPoint x="160" y="240" as="sourcePoint"/>
                        <mxPoint x="413.5" y="240" as="targetPoint"/>
                    </mxGeometry>
                </mxCell>
                <mxCell id="KgVyzV7bRPUq7l_E59am-1" value="click on add new post button&amp;nbsp;" style="text;html=1;align=center;verticalAlign=middle;resizable=0;points=[];autosize=1;strokeColor=none;" parent="r9CPoT8zFpRNWmajDXhj-1" vertex="1">
                    <mxGeometry x="160" y="220" width="170" height="20" as="geometry"/>
                </mxCell>
                <mxCell id="MMHfWl2HtnKCKpqfSJme-0" value="" style="html=1;verticalAlign=bottom;labelBackgroundColor=none;endArrow=block;endFill=1;dashed=1;strokeWidth=1;" parent="r9CPoT8zFpRNWmajDXhj-1" edge="1">
                    <mxGeometry width="160" relative="1" as="geometry">
                        <mxPoint x="413.5" y="270" as="sourcePoint"/>
                        <mxPoint x="160" y="270" as="targetPoint"/>
                        <Array as="points">
                            <mxPoint x="414" y="270"/>
                        </Array>
                    </mxGeometry>
                </mxCell>
                <mxCell id="MMHfWl2HtnKCKpqfSJme-1" value="display add new post page" style="text;html=1;align=center;verticalAlign=middle;resizable=0;points=[];autosize=1;strokeColor=none;" parent="r9CPoT8zFpRNWmajDXhj-1" vertex="1">
                    <mxGeometry x="170" y="250" width="160" height="20" as="geometry"/>
                </mxCell>
                <mxCell id="MMHfWl2HtnKCKpqfSJme-2" value="" style="html=1;verticalAlign=bottom;labelBackgroundColor=none;endArrow=block;endFill=1;strokeWidth=1;" parent="r9CPoT8zFpRNWmajDXhj-1" edge="1">
                    <mxGeometry width="160" relative="1" as="geometry">
                        <mxPoint x="160" y="310" as="sourcePoint"/>
                        <mxPoint x="413.5" y="310" as="targetPoint"/>
                    </mxGeometry>
                </mxCell>
                <mxCell id="MMHfWl2HtnKCKpqfSJme-3" value="submit form" style="text;html=1;align=center;verticalAlign=middle;resizable=0;points=[];autosize=1;strokeColor=none;" parent="r9CPoT8zFpRNWmajDXhj-1" vertex="1">
                    <mxGeometry x="170" y="290" width="80" height="20" as="geometry"/>
                </mxCell>
                <mxCell id="MMHfWl2HtnKCKpqfSJme-5" value="check information" style="text;html=1;align=center;verticalAlign=middle;resizable=0;points=[];autosize=1;strokeColor=none;" parent="r9CPoT8zFpRNWmajDXhj-1" vertex="1">
                    <mxGeometry x="450" y="340" width="110" height="20" as="geometry"/>
                </mxCell>
                <mxCell id="uZHaE4uC2gEEGkSQ9GRS-0" value="" style="html=1;verticalAlign=bottom;labelBackgroundColor=none;endArrow=block;endFill=1;strokeWidth=1;" parent="r9CPoT8zFpRNWmajDXhj-1" target="NA7TbjJJ-2ZGqZ7PMx5w-4" edge="1">
                    <mxGeometry width="160" relative="1" as="geometry">
                        <mxPoint x="414" y="330" as="sourcePoint"/>
                        <mxPoint x="430" y="370" as="targetPoint"/>
                        <Array as="points">
                            <mxPoint x="440" y="330"/>
                            <mxPoint x="440" y="360"/>
                        </Array>
                    </mxGeometry>
                </mxCell>
                <mxCell id="RXx-IZLOUPZj5EC-e0i_-0" value="alt" style="shape=umlFrame;tabWidth=110;tabHeight=30;tabPosition=left;html=1;boundedLbl=1;labelInHeader=1;width=50;height=30;labelBackgroundColor=#ffffff;" parent="r9CPoT8zFpRNWmajDXhj-1" vertex="1">
                    <mxGeometry x="130" y="380" width="610" height="250" as="geometry"/>
                </mxCell>
                <mxCell id="RXx-IZLOUPZj5EC-e0i_-1" value="[If there is any empty field]" style="text" parent="RXx-IZLOUPZj5EC-e0i_-0" vertex="1">
                    <mxGeometry width="100" height="20" relative="1" as="geometry">
                        <mxPoint x="20" y="40" as="offset"/>
                    </mxGeometry>
                </mxCell>
                <mxCell id="RXx-IZLOUPZj5EC-e0i_-2" value="[If all fields are filled out]" style="line;strokeWidth=1;dashed=1;labelPosition=center;verticalLabelPosition=bottom;align=left;verticalAlign=top;spacingLeft=20;spacingTop=15;" parent="RXx-IZLOUPZj5EC-e0i_-0" vertex="1">
                    <mxGeometry y="125" width="609.9999999999999" height="10" as="geometry"/>
                </mxCell>
                <mxCell id="RXx-IZLOUPZj5EC-e0i_-3" value="" style="html=1;verticalAlign=bottom;labelBackgroundColor=none;endArrow=block;endFill=1;dashed=1;strokeWidth=1;" parent="RXx-IZLOUPZj5EC-e0i_-0" edge="1">
                    <mxGeometry width="160" relative="1" as="geometry">
                        <mxPoint x="544" y="219.5" as="sourcePoint"/>
                        <mxPoint x="284" y="219.5" as="targetPoint"/>
                        <Array as="points">
                            <mxPoint x="524" y="219.5"/>
                        </Array>
                    </mxGeometry>
                </mxCell>
                <mxCell id="RXx-IZLOUPZj5EC-e0i_-4" value="send an error message" style="text;html=1;align=center;verticalAlign=middle;resizable=0;points=[];autosize=1;strokeColor=none;" parent="RXx-IZLOUPZj5EC-e0i_-0" vertex="1">
                    <mxGeometry x="40" y="90" width="140" height="20" as="geometry"/>
                </mxCell>
                <mxCell id="RXx-IZLOUPZj5EC-e0i_-5" value="send data" style="text;html=1;align=center;verticalAlign=middle;resizable=0;points=[];autosize=1;strokeColor=none;" parent="RXx-IZLOUPZj5EC-e0i_-0" vertex="1">
                    <mxGeometry x="315" y="165" width="70" height="20" as="geometry"/>
                </mxCell>
                <mxCell id="RXx-IZLOUPZj5EC-e0i_-6" value="the post is added and redirect to dashboard" style="text;html=1;align=center;verticalAlign=middle;resizable=0;points=[];autosize=1;strokeColor=none;" parent="RXx-IZLOUPZj5EC-e0i_-0" vertex="1">
                    <mxGeometry x="20" y="210" width="250" height="20" as="geometry"/>
                </mxCell>
                <mxCell id="RXx-IZLOUPZj5EC-e0i_-7" value="" style="html=1;verticalAlign=bottom;labelBackgroundColor=none;endArrow=block;endFill=1;dashed=1;strokeWidth=1;" parent="r9CPoT8zFpRNWmajDXhj-1" edge="1">
                    <mxGeometry width="160" relative="1" as="geometry">
                        <mxPoint x="413.5" y="489.5" as="sourcePoint"/>
                        <mxPoint x="160" y="489.5" as="targetPoint"/>
                        <Array as="points">
                            <mxPoint x="414" y="489.5"/>
                        </Array>
                    </mxGeometry>
                </mxCell>
                <mxCell id="RXx-IZLOUPZj5EC-e0i_-8" value="" style="html=1;verticalAlign=bottom;labelBackgroundColor=none;endArrow=block;endFill=1;strokeWidth=1;" parent="r9CPoT8zFpRNWmajDXhj-1" edge="1">
                    <mxGeometry width="160" relative="1" as="geometry">
                        <mxPoint x="414" y="570" as="sourcePoint"/>
                        <mxPoint x="667.5" y="570" as="targetPoint"/>
                    </mxGeometry>
                </mxCell>
                <mxCell id="RXx-IZLOUPZj5EC-e0i_-9" value="return the post data" style="text;html=1;align=center;verticalAlign=middle;resizable=0;points=[];autosize=1;strokeColor=none;" parent="r9CPoT8zFpRNWmajDXhj-1" vertex="1">
                    <mxGeometry x="425" y="582" width="120" height="20" as="geometry"/>
                </mxCell>
                <mxCell id="RXx-IZLOUPZj5EC-e0i_-10" value="" style="html=1;verticalAlign=bottom;labelBackgroundColor=none;endArrow=block;endFill=1;dashed=1;strokeWidth=1;" parent="r9CPoT8zFpRNWmajDXhj-1" edge="1">
                    <mxGeometry width="160" relative="1" as="geometry">
                        <mxPoint x="413.5" y="610" as="sourcePoint"/>
                        <mxPoint x="160" y="610" as="targetPoint"/>
                        <Array as="points">
                            <mxPoint x="414" y="610"/>
                        </Array>
                    </mxGeometry>
                </mxCell>
                <mxCell id="RXx-IZLOUPZj5EC-e0i_-11" value="Opt" style="shape=umlFrame;tabPosition=left;html=1;boundedLbl=1;labelInHeader=1;width=50;height=30;labelBackgroundColor=#ffffff;" parent="r9CPoT8zFpRNWmajDXhj-1" vertex="1">
                    <mxGeometry x="130" y="650" width="610" height="220" as="geometry"/>
                </mxCell>
                <mxCell id="RXx-IZLOUPZj5EC-e0i_-20" value="[edit a post]" style="text" parent="RXx-IZLOUPZj5EC-e0i_-11" vertex="1">
                    <mxGeometry x="50" y="12.94217194570136" width="100" height="33.84615384615385" as="geometry"/>
                </mxCell>
                <mxCell id="RXx-IZLOUPZj5EC-e0i_-22" value="click on edit button" style="text;html=1;align=center;verticalAlign=middle;resizable=0;points=[];autosize=1;strokeColor=none;" parent="RXx-IZLOUPZj5EC-e0i_-11" vertex="1">
                    <mxGeometry x="30" y="46.78950226244344" width="110" height="20" as="geometry"/>
                </mxCell>
                <mxCell id="RXx-IZLOUPZj5EC-e0i_-25" value="" style="html=1;verticalAlign=bottom;labelBackgroundColor=none;endArrow=block;endFill=1;dashed=1;strokeWidth=1;" parent="RXx-IZLOUPZj5EC-e0i_-11" edge="1">
                    <mxGeometry width="160" relative="1" as="geometry">
                        <mxPoint x="544" y="109.50294117647061" as="sourcePoint"/>
                        <mxPoint x="284" y="109.50294117647061" as="targetPoint"/>
                        <Array as="points">
                            <mxPoint x="524" y="109.50294117647061"/>
                        </Array>
                    </mxGeometry>
                </mxCell>
                <mxCell id="RXx-IZLOUPZj5EC-e0i_-35" value="display the post in form" style="text;html=1;align=center;verticalAlign=middle;resizable=0;points=[];autosize=1;strokeColor=none;" parent="RXx-IZLOUPZj5EC-e0i_-11" vertex="1">
                    <mxGeometry x="30" y="100.00176470588235" width="140" height="20" as="geometry"/>
                </mxCell>
                <mxCell id="RXx-IZLOUPZj5EC-e0i_-37" value="submit edited post" style="text;html=1;align=center;verticalAlign=middle;resizable=0;points=[];autosize=1;strokeColor=none;" parent="RXx-IZLOUPZj5EC-e0i_-11" vertex="1">
                    <mxGeometry x="30" y="130.00126696832575" width="110" height="20" as="geometry"/>
                </mxCell>
                <mxCell id="RXx-IZLOUPZj5EC-e0i_-43" value="update successfully" style="text;html=1;align=center;verticalAlign=middle;resizable=0;points=[];autosize=1;strokeColor=none;" parent="RXx-IZLOUPZj5EC-e0i_-11" vertex="1">
                    <mxGeometry x="284" y="170" width="120" height="20" as="geometry"/>
                </mxCell>
                <mxCell id="RXx-IZLOUPZj5EC-e0i_-44" value="" style="html=1;verticalAlign=bottom;labelBackgroundColor=none;endArrow=block;endFill=1;dashed=1;strokeWidth=1;" parent="RXx-IZLOUPZj5EC-e0i_-11" edge="1">
                    <mxGeometry width="160" relative="1" as="geometry">
                        <mxPoint x="283.5" y="200" as="sourcePoint"/>
                        <mxPoint x="30" y="200" as="targetPoint"/>
                        <Array as="points">
                            <mxPoint x="284" y="200"/>
                        </Array>
                    </mxGeometry>
                </mxCell>
                <mxCell id="RXx-IZLOUPZj5EC-e0i_-45" value="display confirmation message" style="text;html=1;align=center;verticalAlign=middle;resizable=0;points=[];autosize=1;strokeColor=none;" parent="RXx-IZLOUPZj5EC-e0i_-11" vertex="1">
                    <mxGeometry x="30" y="180.00176470588235" width="170" height="20" as="geometry"/>
                </mxCell>
                <mxCell id="RXx-IZLOUPZj5EC-e0i_-21" value="" style="html=1;verticalAlign=bottom;labelBackgroundColor=none;endArrow=block;endFill=1;strokeWidth=1;" parent="r9CPoT8zFpRNWmajDXhj-1" edge="1">
                    <mxGeometry width="160" relative="1" as="geometry">
                        <mxPoint x="160" y="714.5" as="sourcePoint"/>
                        <mxPoint x="413.5" y="714.5" as="targetPoint"/>
                    </mxGeometry>
                </mxCell>
                <mxCell id="RXx-IZLOUPZj5EC-e0i_-23" value="" style="html=1;verticalAlign=bottom;labelBackgroundColor=none;endArrow=block;endFill=1;strokeWidth=1;" parent="r9CPoT8zFpRNWmajDXhj-1" edge="1">
                    <mxGeometry width="160" relative="1" as="geometry">
                        <mxPoint x="414" y="730" as="sourcePoint"/>
                        <mxPoint x="667.5" y="730" as="targetPoint"/>
                    </mxGeometry>
                </mxCell>
                <mxCell id="RXx-IZLOUPZj5EC-e0i_-26" value="return data" style="text;html=1;align=center;verticalAlign=middle;resizable=0;points=[];autosize=1;strokeColor=none;" parent="r9CPoT8zFpRNWmajDXhj-1" vertex="1">
                    <mxGeometry x="439" y="740" width="70" height="20" as="geometry"/>
                </mxCell>
                <mxCell id="RXx-IZLOUPZj5EC-e0i_-27" value="" style="html=1;verticalAlign=bottom;labelBackgroundColor=none;endArrow=block;endFill=1;dashed=1;strokeWidth=1;" parent="r9CPoT8zFpRNWmajDXhj-1" edge="1">
                    <mxGeometry width="160" relative="1" as="geometry">
                        <mxPoint x="413.5" y="770" as="sourcePoint"/>
                        <mxPoint x="160" y="770" as="targetPoint"/>
                        <Array as="points">
                            <mxPoint x="414" y="770"/>
                        </Array>
                    </mxGeometry>
                </mxCell>
                <mxCell id="RXx-IZLOUPZj5EC-e0i_-36" value="" style="html=1;verticalAlign=bottom;labelBackgroundColor=none;endArrow=block;endFill=1;strokeWidth=1;" parent="r9CPoT8zFpRNWmajDXhj-1" edge="1">
                    <mxGeometry width="160" relative="1" as="geometry">
                        <mxPoint x="160" y="800" as="sourcePoint"/>
                        <mxPoint x="413.5" y="800" as="targetPoint"/>
                    </mxGeometry>
                </mxCell>
                <mxCell id="RXx-IZLOUPZj5EC-e0i_-38" value="" style="html=1;verticalAlign=bottom;labelBackgroundColor=none;endArrow=block;endFill=1;strokeWidth=1;" parent="r9CPoT8zFpRNWmajDXhj-1" edge="1">
                    <mxGeometry width="160" relative="1" as="geometry">
                        <mxPoint x="414" y="810" as="sourcePoint"/>
                        <mxPoint x="667.5" y="810" as="targetPoint"/>
                    </mxGeometry>
                </mxCell>
                <mxCell id="RXx-IZLOUPZj5EC-e0i_-39" value="update data" style="text;html=1;align=center;verticalAlign=middle;resizable=0;points=[];autosize=1;strokeColor=none;" parent="r9CPoT8zFpRNWmajDXhj-1" vertex="1">
                    <mxGeometry x="414" y="790" width="80" height="20" as="geometry"/>
                </mxCell>
                <mxCell id="RXx-IZLOUPZj5EC-e0i_-41" value="" style="html=1;verticalAlign=bottom;labelBackgroundColor=none;endArrow=block;endFill=1;dashed=1;strokeWidth=1;" parent="r9CPoT8zFpRNWmajDXhj-1" edge="1">
                    <mxGeometry width="160" relative="1" as="geometry">
                        <mxPoint x="674" y="840.0029411764706" as="sourcePoint"/>
                        <mxPoint x="414" y="840.0029411764706" as="targetPoint"/>
                        <Array as="points">
                            <mxPoint x="654" y="840.0029411764706"/>
                        </Array>
                    </mxGeometry>
                </mxCell>
                <mxCell id="RXx-IZLOUPZj5EC-e0i_-42" value="search data" style="text;html=1;align=center;verticalAlign=middle;resizable=0;points=[];autosize=1;strokeColor=none;" parent="r9CPoT8zFpRNWmajDXhj-1" vertex="1">
                    <mxGeometry x="434" y="705" width="80" height="20" as="geometry"/>
                </mxCell>
                <mxCell id="qzkMYgA72akRccGJpraq-0" value="Opt" style="shape=umlFrame;tabPosition=left;html=1;boundedLbl=1;labelInHeader=1;width=50;height=30;labelBackgroundColor=#ffffff;" parent="r9CPoT8zFpRNWmajDXhj-1" vertex="1">
                    <mxGeometry x="130" y="892" width="610" height="220" as="geometry"/>
                </mxCell>
                <mxCell id="qzkMYgA72akRccGJpraq-1" value="[delete a post]" style="text" parent="qzkMYgA72akRccGJpraq-0" vertex="1">
                    <mxGeometry x="50" y="10.002171945701361" width="100" height="33.84615384615385" as="geometry"/>
                </mxCell>
                <mxCell id="qzkMYgA72akRccGJpraq-2" value="click on delete button" style="text;html=1;align=center;verticalAlign=middle;resizable=0;points=[];autosize=1;strokeColor=none;" parent="qzkMYgA72akRccGJpraq-0" vertex="1">
                    <mxGeometry x="28" y="53.78950226244344" width="130" height="20" as="geometry"/>
                </mxCell>
                <mxCell id="qzkMYgA72akRccGJpraq-3" value="" style="html=1;verticalAlign=bottom;labelBackgroundColor=none;endArrow=block;endFill=1;dashed=1;strokeWidth=1;" parent="qzkMYgA72akRccGJpraq-0" edge="1">
                    <mxGeometry width="160" relative="1" as="geometry">
                        <mxPoint x="544" y="200.0029411764706" as="sourcePoint"/>
                        <mxPoint x="284" y="200.0029411764706" as="targetPoint"/>
                        <Array as="points">
                            <mxPoint x="524" y="200.0029411764706"/>
                        </Array>
                    </mxGeometry>
                </mxCell>
                <mxCell id="qzkMYgA72akRccGJpraq-4" value="ask for a confirmation" style="text;html=1;align=center;verticalAlign=middle;resizable=0;points=[];autosize=1;strokeColor=none;" parent="qzkMYgA72akRccGJpraq-0" vertex="1">
                    <mxGeometry x="35" y="100.00176470588235" width="130" height="20" as="geometry"/>
                </mxCell>
                <mxCell id="qzkMYgA72akRccGJpraq-5" value="click &quot;yes&quot;" style="text;html=1;align=center;verticalAlign=middle;resizable=0;points=[];autosize=1;strokeColor=none;" parent="qzkMYgA72akRccGJpraq-0" vertex="1">
                    <mxGeometry x="50" y="130.00126696832575" width="70" height="20" as="geometry"/>
                </mxCell>
                <mxCell id="qzkMYgA72akRccGJpraq-6" value="delete the post and its comments" style="text;html=1;align=center;verticalAlign=middle;resizable=0;points=[];autosize=1;strokeColor=none;" parent="qzkMYgA72akRccGJpraq-0" vertex="1">
                    <mxGeometry x="281" y="150" width="190" height="20" as="geometry"/>
                </mxCell>
                <mxCell id="qzkMYgA72akRccGJpraq-7" value="" style="html=1;verticalAlign=bottom;labelBackgroundColor=none;endArrow=block;endFill=1;dashed=1;strokeWidth=1;" parent="qzkMYgA72akRccGJpraq-0" edge="1">
                    <mxGeometry width="160" relative="1" as="geometry">
                        <mxPoint x="283.5" y="211" as="sourcePoint"/>
                        <mxPoint x="30" y="211" as="targetPoint"/>
                        <Array as="points">
                            <mxPoint x="284" y="211"/>
                        </Array>
                    </mxGeometry>
                </mxCell>
                <mxCell id="qzkMYgA72akRccGJpraq-8" value="display confirmation message" style="text;html=1;align=center;verticalAlign=middle;resizable=0;points=[];autosize=1;strokeColor=none;" parent="qzkMYgA72akRccGJpraq-0" vertex="1">
                    <mxGeometry x="30" y="191.00176470588235" width="170" height="20" as="geometry"/>
                </mxCell>
                <mxCell id="qzkMYgA72akRccGJpraq-9" value="" style="html=1;verticalAlign=bottom;labelBackgroundColor=none;endArrow=block;endFill=1;strokeWidth=1;" parent="qzkMYgA72akRccGJpraq-0" edge="1">
                    <mxGeometry width="160" relative="1" as="geometry">
                        <mxPoint x="30.5" y="80" as="sourcePoint"/>
                        <mxPoint x="284" y="80" as="targetPoint"/>
                    </mxGeometry>
                </mxCell>
                <mxCell id="qzkMYgA72akRccGJpraq-12" value="" style="html=1;verticalAlign=bottom;labelBackgroundColor=none;endArrow=block;endFill=1;strokeWidth=1;" parent="qzkMYgA72akRccGJpraq-0" edge="1">
                    <mxGeometry width="160" relative="1" as="geometry">
                        <mxPoint x="284" y="170" as="sourcePoint"/>
                        <mxPoint x="537.5" y="170" as="targetPoint"/>
                    </mxGeometry>
                </mxCell>
                <mxCell id="qzkMYgA72akRccGJpraq-10" value="" style="html=1;verticalAlign=bottom;labelBackgroundColor=none;endArrow=block;endFill=1;dashed=1;strokeWidth=1;" parent="r9CPoT8zFpRNWmajDXhj-1" edge="1">
                    <mxGeometry width="160" relative="1" as="geometry">
                        <mxPoint x="413.5" y="1010" as="sourcePoint"/>
                        <mxPoint x="160" y="1010" as="targetPoint"/>
                        <Array as="points">
                            <mxPoint x="414" y="1010"/>
                        </Array>
                    </mxGeometry>
                </mxCell>
                <mxCell id="qzkMYgA72akRccGJpraq-11" value="" style="html=1;verticalAlign=bottom;labelBackgroundColor=none;endArrow=block;endFill=1;strokeWidth=1;" parent="r9CPoT8zFpRNWmajDXhj-1" edge="1">
                    <mxGeometry width="160" relative="1" as="geometry">
                        <mxPoint x="160.5" y="1040" as="sourcePoint"/>
                        <mxPoint x="414" y="1040" as="targetPoint"/>
                    </mxGeometry>
                </mxCell>
                <mxCell id="qzkMYgA72akRccGJpraq-13" value="delete successfully" style="text;html=1;align=center;verticalAlign=middle;resizable=0;points=[];autosize=1;strokeColor=none;" parent="r9CPoT8zFpRNWmajDXhj-1" vertex="1">
                    <mxGeometry x="460" y="1070" width="120" height="20" as="geometry"/>
                </mxCell>
                <mxCell id="qzkMYgA72akRccGJpraq-14" value="&lt;b&gt;sequence diagram: manage post&lt;/b&gt;" style="text;html=1;align=center;verticalAlign=middle;resizable=0;points=[];autosize=1;strokeColor=none;" parent="r9CPoT8zFpRNWmajDXhj-1" vertex="1">
                    <mxGeometry x="130" y="40" width="200" height="20" as="geometry"/>
                </mxCell>
                <mxCell id="XUAcs8nXU1PYnuTB2HME-0" value="" style="shape=umlActor;verticalLabelPosition=bottom;verticalAlign=top;html=1;outlineConnect=0;labelBackgroundColor=#ffffff;" parent="r9CPoT8zFpRNWmajDXhj-1" vertex="1">
                    <mxGeometry x="140" y="120" width="30" height="60" as="geometry"/>
                </mxCell>
                <mxCell id="XUAcs8nXU1PYnuTB2HME-1" value="" style="shape=umlActor;verticalLabelPosition=bottom;verticalAlign=top;html=1;outlineConnect=0;labelBackgroundColor=#ffffff;" parent="r9CPoT8zFpRNWmajDXhj-1" vertex="1">
                    <mxGeometry x="140" y="120" width="30" height="60" as="geometry"/>
                </mxCell>
                <mxCell id="1MeXqUFze2sZjj2Vo2yI-0" value="" style="rounded=0;whiteSpace=wrap;html=1;" parent="r9CPoT8zFpRNWmajDXhj-1" vertex="1">
                    <mxGeometry x="409" y="225" width="10" height="875" as="geometry"/>
                </mxCell>
                <mxCell id="1MeXqUFze2sZjj2Vo2yI-1" value="" style="rounded=0;whiteSpace=wrap;html=1;" parent="r9CPoT8zFpRNWmajDXhj-1" vertex="1">
                    <mxGeometry x="665" y="520" width="10" height="580" as="geometry"/>
                </mxCell>
            </root>
        </mxGraphModel>
    </diagram>
    <diagram id="Sftd65ooWAoXLa6I-1Si" name="sequence diagram:comment managment">
        <mxGraphModel dx="592" dy="357" grid="1" gridSize="10" guides="1" tooltips="1" connect="1" arrows="1" fold="1" page="1" pageScale="1" pageWidth="827" pageHeight="1169" math="0" shadow="0">
            <root>
                <mxCell id="XwxalIOTJbtCikpDkT2S-0"/>
                <mxCell id="XwxalIOTJbtCikpDkT2S-1" parent="XwxalIOTJbtCikpDkT2S-0"/>
                <mxCell id="T64OLHn6gWk_B7_8tlmn-0" value="&lt;b&gt;Alt&lt;/b&gt;" style="shape=umlFrame;tabWidth=110;tabHeight=30;tabPosition=left;html=1;boundedLbl=1;labelInHeader=1;width=50;height=30;labelBackgroundColor=#ffffff;" parent="XwxalIOTJbtCikpDkT2S-1" vertex="1">
                    <mxGeometry x="105" y="360" width="610" height="250" as="geometry"/>
                </mxCell>
                <mxCell id="T64OLHn6gWk_B7_8tlmn-1" value="[if administrator reject the request]" style="text" parent="T64OLHn6gWk_B7_8tlmn-0" vertex="1">
                    <mxGeometry width="100" height="20" relative="1" as="geometry">
                        <mxPoint x="20" y="40" as="offset"/>
                    </mxGeometry>
                </mxCell>
                <mxCell id="T64OLHn6gWk_B7_8tlmn-2" value="[If administrator accepts the request]" style="line;strokeWidth=1;dashed=1;labelPosition=center;verticalLabelPosition=bottom;align=left;verticalAlign=top;spacingLeft=20;spacingTop=15;" parent="T64OLHn6gWk_B7_8tlmn-0" vertex="1">
                    <mxGeometry y="125" width="609.9999999999999" height="10" as="geometry"/>
                </mxCell>
                <mxCell id="T64OLHn6gWk_B7_8tlmn-3" value="" style="html=1;verticalAlign=bottom;labelBackgroundColor=none;endArrow=block;endFill=1;dashed=1;strokeWidth=1;" parent="T64OLHn6gWk_B7_8tlmn-0" edge="1">
                    <mxGeometry width="160" relative="1" as="geometry">
                        <mxPoint x="405" y="180" as="sourcePoint"/>
                        <mxPoint x="245" y="180" as="targetPoint"/>
                        <Array as="points"/>
                    </mxGeometry>
                </mxCell>
                <mxCell id="T64OLHn6gWk_B7_8tlmn-8" value="reject comment" style="text;html=1;align=center;verticalAlign=middle;resizable=0;points=[];autosize=1;strokeColor=none;" parent="T64OLHn6gWk_B7_8tlmn-0" vertex="1">
                    <mxGeometry x="254" y="50" width="100" height="20" as="geometry"/>
                </mxCell>
                <mxCell id="T64OLHn6gWk_B7_8tlmn-13" value="" style="html=1;verticalAlign=bottom;labelBackgroundColor=none;endArrow=block;endFill=1;strokeWidth=1;" parent="T64OLHn6gWk_B7_8tlmn-0" source="T64OLHn6gWk_B7_8tlmn-0" edge="1">
                    <mxGeometry width="160" relative="1" as="geometry">
                        <mxPoint x="410" y="190" as="sourcePoint"/>
                        <mxPoint x="610" y="190" as="targetPoint"/>
                    </mxGeometry>
                </mxCell>
                <mxCell id="T64OLHn6gWk_B7_8tlmn-18" value="save data" style="text;html=1;align=center;verticalAlign=middle;resizable=0;points=[];autosize=1;strokeColor=none;" parent="T64OLHn6gWk_B7_8tlmn-0" vertex="1">
                    <mxGeometry x="260" y="190" width="70" height="20" as="geometry"/>
                </mxCell>
                <mxCell id="T64OLHn6gWk_B7_8tlmn-22" value="" style="html=1;verticalAlign=bottom;labelBackgroundColor=none;endArrow=block;endFill=1;dashed=1;strokeWidth=1;" parent="T64OLHn6gWk_B7_8tlmn-0" edge="1">
                    <mxGeometry width="160" relative="1" as="geometry">
                        <mxPoint x="245" y="240" as="sourcePoint"/>
                        <mxPoint x="25" y="240" as="targetPoint"/>
                        <Array as="points"/>
                    </mxGeometry>
                </mxCell>
                <mxCell id="rfhxK9UTXjoMZtwG7hWA-0" value="System" style="shape=umlLifeline;perimeter=lifelinePerimeter;whiteSpace=wrap;html=1;container=1;collapsible=0;recursiveResize=0;outlineConnect=0;labelBackgroundColor=#ffffff;" parent="XwxalIOTJbtCikpDkT2S-1" vertex="1">
                    <mxGeometry x="300" y="160" width="100" height="790" as="geometry"/>
                </mxCell>
                <mxCell id="rfhxK9UTXjoMZtwG7hWA-1" value="" style="endArrow=none;dashed=1;html=1;strokeWidth=1;startArrow=none;" parent="XwxalIOTJbtCikpDkT2S-1" edge="1">
                    <mxGeometry width="50" height="50" relative="1" as="geometry">
                        <mxPoint x="135" y="950" as="sourcePoint"/>
                        <mxPoint x="134.5" y="200" as="targetPoint"/>
                    </mxGeometry>
                </mxCell>
                <mxCell id="rfhxK9UTXjoMZtwG7hWA-2" value="User" style="shape=umlActor;verticalLabelPosition=bottom;verticalAlign=top;html=1;outlineConnect=0;labelBackgroundColor=#ffffff;" parent="XwxalIOTJbtCikpDkT2S-1" vertex="1">
                    <mxGeometry x="120" y="120" width="30" height="60" as="geometry"/>
                </mxCell>
                <mxCell id="rfhxK9UTXjoMZtwG7hWA-4" value="System" style="shape=umlLifeline;perimeter=lifelinePerimeter;whiteSpace=wrap;html=1;container=1;collapsible=0;recursiveResize=0;outlineConnect=0;labelBackgroundColor=#ffffff;" parent="XwxalIOTJbtCikpDkT2S-1" vertex="1">
                    <mxGeometry x="660" y="160" width="100" height="790" as="geometry"/>
                </mxCell>
                <mxCell id="rfhxK9UTXjoMZtwG7hWA-5" value="" style="endArrow=none;dashed=1;html=1;strokeWidth=1;startArrow=none;" parent="XwxalIOTJbtCikpDkT2S-1" edge="1">
                    <mxGeometry width="50" height="50" relative="1" as="geometry">
                        <mxPoint x="515" y="950" as="sourcePoint"/>
                        <mxPoint x="514.5" y="200" as="targetPoint"/>
                    </mxGeometry>
                </mxCell>
                <mxCell id="rfhxK9UTXjoMZtwG7hWA-6" value="Administrator" style="shape=umlActor;verticalLabelPosition=bottom;verticalAlign=top;html=1;outlineConnect=0;labelBackgroundColor=#ffffff;" parent="XwxalIOTJbtCikpDkT2S-1" vertex="1">
                    <mxGeometry x="500" y="120" width="30" height="60" as="geometry"/>
                </mxCell>
                <mxCell id="TLRp25GC3qaJ809h62Zr-0" value="" style="html=1;verticalAlign=bottom;labelBackgroundColor=none;endArrow=block;endFill=1;strokeWidth=1;" parent="XwxalIOTJbtCikpDkT2S-1" edge="1">
                    <mxGeometry width="160" relative="1" as="geometry">
                        <mxPoint x="140" y="240" as="sourcePoint"/>
                        <mxPoint x="350" y="240" as="targetPoint"/>
                    </mxGeometry>
                </mxCell>
                <mxCell id="TLRp25GC3qaJ809h62Zr-1" value="click on &quot;comment&quot;button&amp;nbsp;" style="text;html=1;align=center;verticalAlign=middle;resizable=0;points=[];autosize=1;strokeColor=none;" parent="XwxalIOTJbtCikpDkT2S-1" vertex="1">
                    <mxGeometry x="140" y="220" width="150" height="20" as="geometry"/>
                </mxCell>
                <mxCell id="5lU0uEFeHOA4uOWzyho7-0" value="" style="html=1;verticalAlign=bottom;labelBackgroundColor=none;endArrow=block;endFill=1;dashed=1;strokeWidth=1;" parent="XwxalIOTJbtCikpDkT2S-1" edge="1">
                    <mxGeometry width="160" relative="1" as="geometry">
                        <mxPoint x="350" y="280" as="sourcePoint"/>
                        <mxPoint x="130" y="280" as="targetPoint"/>
                        <Array as="points"/>
                    </mxGeometry>
                </mxCell>
                <mxCell id="5lU0uEFeHOA4uOWzyho7-1" value="display comment form" style="text;html=1;align=center;verticalAlign=middle;resizable=0;points=[];autosize=1;strokeColor=none;" parent="XwxalIOTJbtCikpDkT2S-1" vertex="1">
                    <mxGeometry x="160" y="260" width="130" height="20" as="geometry"/>
                </mxCell>
                <mxCell id="5lU0uEFeHOA4uOWzyho7-2" value="" style="html=1;verticalAlign=bottom;labelBackgroundColor=none;endArrow=block;endFill=1;strokeWidth=1;" parent="XwxalIOTJbtCikpDkT2S-1" edge="1">
                    <mxGeometry width="160" relative="1" as="geometry">
                        <mxPoint x="140" y="320" as="sourcePoint"/>
                        <mxPoint x="350" y="320" as="targetPoint"/>
                    </mxGeometry>
                </mxCell>
                <mxCell id="5lU0uEFeHOA4uOWzyho7-3" value="submit comment" style="text;html=1;align=center;verticalAlign=middle;resizable=0;points=[];autosize=1;strokeColor=none;" parent="XwxalIOTJbtCikpDkT2S-1" vertex="1">
                    <mxGeometry x="150" y="300" width="100" height="20" as="geometry"/>
                </mxCell>
                <mxCell id="5lU0uEFeHOA4uOWzyho7-4" value="" style="html=1;verticalAlign=bottom;labelBackgroundColor=none;endArrow=block;endFill=1;strokeWidth=1;" parent="XwxalIOTJbtCikpDkT2S-1" edge="1">
                    <mxGeometry width="160" relative="1" as="geometry">
                        <mxPoint x="350" y="340" as="sourcePoint"/>
                        <mxPoint x="520" y="340" as="targetPoint"/>
                    </mxGeometry>
                </mxCell>
                <mxCell id="5lU0uEFeHOA4uOWzyho7-5" value="send notification" style="text;html=1;align=center;verticalAlign=middle;resizable=0;points=[];autosize=1;strokeColor=none;" parent="XwxalIOTJbtCikpDkT2S-1" vertex="1">
                    <mxGeometry x="360" y="320" width="100" height="20" as="geometry"/>
                </mxCell>
                <mxCell id="T64OLHn6gWk_B7_8tlmn-7" value="" style="html=1;verticalAlign=bottom;labelBackgroundColor=none;endArrow=block;endFill=1;dashed=1;strokeWidth=1;" parent="XwxalIOTJbtCikpDkT2S-1" edge="1">
                    <mxGeometry width="160" relative="1" as="geometry">
                        <mxPoint x="520" y="430" as="sourcePoint"/>
                        <mxPoint x="350" y="430" as="targetPoint"/>
                        <Array as="points"/>
                    </mxGeometry>
                </mxCell>
                <mxCell id="T64OLHn6gWk_B7_8tlmn-11" value="" style="shape=umlDestroy;" parent="XwxalIOTJbtCikpDkT2S-1" vertex="1">
                    <mxGeometry x="340" y="420" width="20" height="20" as="geometry"/>
                </mxCell>
                <mxCell id="T64OLHn6gWk_B7_8tlmn-14" value="send notification" style="text;html=1;align=center;verticalAlign=middle;resizable=0;points=[];autosize=1;strokeColor=none;" parent="XwxalIOTJbtCikpDkT2S-1" vertex="1">
                    <mxGeometry x="520" y="520" width="100" height="20" as="geometry"/>
                </mxCell>
                <mxCell id="T64OLHn6gWk_B7_8tlmn-15" value="approve request" style="text;html=1;align=center;verticalAlign=middle;resizable=0;points=[];autosize=1;strokeColor=none;" parent="XwxalIOTJbtCikpDkT2S-1" vertex="1">
                    <mxGeometry x="360" y="520" width="100" height="20" as="geometry"/>
                </mxCell>
                <mxCell id="T64OLHn6gWk_B7_8tlmn-17" value="" style="html=1;verticalAlign=bottom;labelBackgroundColor=none;endArrow=block;endFill=1;strokeWidth=1;" parent="XwxalIOTJbtCikpDkT2S-1" source="rfhxK9UTXjoMZtwG7hWA-0" target="rfhxK9UTXjoMZtwG7hWA-4" edge="1">
                    <mxGeometry width="160" relative="1" as="geometry">
                        <mxPoint x="380" y="570" as="sourcePoint"/>
                        <mxPoint x="672.5" y="570" as="targetPoint"/>
                        <Array as="points">
                            <mxPoint x="477.5" y="570.5"/>
                            <mxPoint x="587.5" y="570.5"/>
                        </Array>
                    </mxGeometry>
                </mxCell>
                <mxCell id="T64OLHn6gWk_B7_8tlmn-20" value="" style="html=1;verticalAlign=bottom;labelBackgroundColor=none;endArrow=block;endFill=1;dashed=1;" parent="XwxalIOTJbtCikpDkT2S-1" source="rfhxK9UTXjoMZtwG7hWA-4" edge="1">
                    <mxGeometry width="160" relative="1" as="geometry">
                        <mxPoint x="390" y="594" as="sourcePoint"/>
                        <mxPoint x="349.5" y="594" as="targetPoint"/>
                    </mxGeometry>
                </mxCell>
                <mxCell id="T64OLHn6gWk_B7_8tlmn-21" value="data is saved" style="text;html=1;align=center;verticalAlign=middle;resizable=0;points=[];autosize=1;strokeColor=none;" parent="XwxalIOTJbtCikpDkT2S-1" vertex="1">
                    <mxGeometry x="365" y="575" width="90" height="20" as="geometry"/>
                </mxCell>
                <mxCell id="T64OLHn6gWk_B7_8tlmn-23" value="display comment" style="text;html=1;align=center;verticalAlign=middle;resizable=0;points=[];autosize=1;strokeColor=none;" parent="XwxalIOTJbtCikpDkT2S-1" vertex="1">
                    <mxGeometry x="135" y="575" width="110" height="20" as="geometry"/>
                </mxCell>
                <mxCell id="T64OLHn6gWk_B7_8tlmn-24" value="" style="rounded=0;whiteSpace=wrap;html=1;" parent="XwxalIOTJbtCikpDkT2S-1" vertex="1">
                    <mxGeometry x="350" y="230" width="5" height="380" as="geometry"/>
                </mxCell>
                <mxCell id="T64OLHn6gWk_B7_8tlmn-25" value="" style="rounded=0;whiteSpace=wrap;html=1;" parent="XwxalIOTJbtCikpDkT2S-1" vertex="1">
                    <mxGeometry x="512.5" y="330" width="5" height="270" as="geometry"/>
                </mxCell>
                <mxCell id="T64OLHn6gWk_B7_8tlmn-26" value="" style="rounded=0;whiteSpace=wrap;html=1;" parent="XwxalIOTJbtCikpDkT2S-1" vertex="1">
                    <mxGeometry x="707.5" y="310" width="5" height="290" as="geometry"/>
                </mxCell>
                <mxCell id="T64OLHn6gWk_B7_8tlmn-27" value="&lt;b&gt;sequence diagram :manage comments&lt;/b&gt;" style="text;html=1;align=center;verticalAlign=middle;resizable=0;points=[];autosize=1;strokeColor=none;" parent="XwxalIOTJbtCikpDkT2S-1" vertex="1">
                    <mxGeometry x="110" y="50" width="240" height="20" as="geometry"/>
                </mxCell>
            </root>
        </mxGraphModel>
    </diagram>
    <diagram id="O767KZgbRcu08Ro2IDvJ" name="class diagram">
        <mxGraphModel dx="336" dy="357" grid="1" gridSize="10" guides="1" tooltips="1" connect="1" arrows="1" fold="1" page="1" pageScale="1" pageWidth="827" pageHeight="1169" math="0" shadow="0">
            <root>
                <mxCell id="gdSaFjA3N8zEZ9fKeRR8-0"/>
                <mxCell id="gdSaFjA3N8zEZ9fKeRR8-1" parent="gdSaFjA3N8zEZ9fKeRR8-0"/>
                <mxCell id="gdSaFjA3N8zEZ9fKeRR8-2" value="&lt;b&gt;Post&lt;/b&gt;" style="swimlane;fontStyle=0;align=center;verticalAlign=top;childLayout=stackLayout;horizontal=1;startSize=30;horizontalStack=0;resizeParent=1;resizeParentMax=0;resizeLast=0;collapsible=0;marginBottom=0;html=1;" parent="gdSaFjA3N8zEZ9fKeRR8-1" vertex="1">
                    <mxGeometry x="75" y="210" width="140" height="147" as="geometry"/>
                </mxCell>
                <mxCell id="gdSaFjA3N8zEZ9fKeRR8-4" value="+id: Integer&lt;br&gt;+title: String&lt;br&gt;+chapo: String&lt;br&gt;+image: String&lt;br&gt;+content: String&lt;br&gt;+dateCreate: Datetime&lt;br&gt;+dateUpdate: Datetime" style="text;html=1;strokeColor=none;fillColor=none;align=left;verticalAlign=middle;spacingLeft=4;spacingRight=4;overflow=hidden;rotatable=0;points=[[0,0.5],[1,0.5]];portConstraint=eastwest;" parent="gdSaFjA3N8zEZ9fKeRR8-2" vertex="1">
                    <mxGeometry y="30" width="140" height="115" as="geometry"/>
                </mxCell>
                <mxCell id="gdSaFjA3N8zEZ9fKeRR8-8" value="operations" style="text;html=1;strokeColor=none;fillColor=none;align=center;verticalAlign=middle;spacingLeft=4;spacingRight=4;overflow=hidden;rotatable=0;points=[[0,0.5],[1,0.5]];portConstraint=eastwest;" parent="gdSaFjA3N8zEZ9fKeRR8-2" vertex="1">
                    <mxGeometry y="145" width="140" height="2" as="geometry"/>
                </mxCell>
                <mxCell id="gdSaFjA3N8zEZ9fKeRR8-10" value="&lt;b&gt;User&lt;/b&gt;" style="swimlane;fontStyle=0;align=center;verticalAlign=top;childLayout=stackLayout;horizontal=1;startSize=30;horizontalStack=0;resizeParent=1;resizeParentMax=0;resizeLast=0;collapsible=0;marginBottom=0;html=1;" parent="gdSaFjA3N8zEZ9fKeRR8-1" vertex="1">
                    <mxGeometry x="270" y="63" width="140" height="147" as="geometry"/>
                </mxCell>
                <mxCell id="gdSaFjA3N8zEZ9fKeRR8-11" value="+id: Integer&lt;br&gt;+firstName: String&lt;br&gt;+lastName: String&lt;br&gt;+userName: String&lt;br&gt;+email: String&lt;br&gt;+password: String&lt;br&gt;+dateCreate: Datetime" style="text;html=1;strokeColor=none;fillColor=none;align=left;verticalAlign=middle;spacingLeft=4;spacingRight=4;overflow=hidden;rotatable=0;points=[[0,0.5],[1,0.5]];portConstraint=eastwest;" parent="gdSaFjA3N8zEZ9fKeRR8-10" vertex="1">
                    <mxGeometry y="30" width="140" height="115" as="geometry"/>
                </mxCell>
                <mxCell id="gdSaFjA3N8zEZ9fKeRR8-12" value="operations" style="text;html=1;strokeColor=none;fillColor=none;align=center;verticalAlign=middle;spacingLeft=4;spacingRight=4;overflow=hidden;rotatable=0;points=[[0,0.5],[1,0.5]];portConstraint=eastwest;" parent="gdSaFjA3N8zEZ9fKeRR8-10" vertex="1">
                    <mxGeometry y="145" width="140" height="2" as="geometry"/>
                </mxCell>
                <mxCell id="zRfYEAlNPZ1K7EOUWBt4-6" style="edgeStyle=orthogonalEdgeStyle;rounded=0;orthogonalLoop=1;jettySize=auto;html=1;entryX=1;entryY=0.5;entryDx=0;entryDy=0;endArrow=none;endFill=0;" parent="gdSaFjA3N8zEZ9fKeRR8-1" source="gdSaFjA3N8zEZ9fKeRR8-13" target="gdSaFjA3N8zEZ9fKeRR8-11" edge="1">
                    <mxGeometry relative="1" as="geometry"/>
                </mxCell>
                <mxCell id="gdSaFjA3N8zEZ9fKeRR8-13" value="&lt;b&gt;Comment&lt;/b&gt;" style="swimlane;fontStyle=0;align=center;verticalAlign=top;childLayout=stackLayout;horizontal=1;startSize=30;horizontalStack=0;resizeParent=1;resizeParentMax=0;resizeLast=0;collapsible=0;marginBottom=0;html=1;" parent="gdSaFjA3N8zEZ9fKeRR8-1" vertex="1">
                    <mxGeometry x="510" y="260" width="140" height="147" as="geometry"/>
                </mxCell>
                <mxCell id="gdSaFjA3N8zEZ9fKeRR8-14" value="+id: Integer&lt;br&gt;+author: String&lt;br&gt;+message: String&lt;br&gt;+valid:Boolean&lt;br&gt;+dateCreate: Datetime" style="text;html=1;strokeColor=none;fillColor=none;align=left;verticalAlign=middle;spacingLeft=4;spacingRight=4;overflow=hidden;rotatable=0;points=[[0,0.5],[1,0.5]];portConstraint=eastwest;" parent="gdSaFjA3N8zEZ9fKeRR8-13" vertex="1">
                    <mxGeometry y="30" width="140" height="115" as="geometry"/>
                </mxCell>
                <mxCell id="gdSaFjA3N8zEZ9fKeRR8-15" value="operations" style="text;html=1;strokeColor=none;fillColor=none;align=center;verticalAlign=middle;spacingLeft=4;spacingRight=4;overflow=hidden;rotatable=0;points=[[0,0.5],[1,0.5]];portConstraint=eastwest;" parent="gdSaFjA3N8zEZ9fKeRR8-13" vertex="1">
                    <mxGeometry y="145" width="140" height="2" as="geometry"/>
                </mxCell>
                <mxCell id="gdSaFjA3N8zEZ9fKeRR8-16" style="edgeStyle=orthogonalEdgeStyle;rounded=0;orthogonalLoop=1;jettySize=auto;html=1;endArrow=diamond;endFill=1;" parent="gdSaFjA3N8zEZ9fKeRR8-1" source="gdSaFjA3N8zEZ9fKeRR8-4" target="gdSaFjA3N8zEZ9fKeRR8-11" edge="1">
                    <mxGeometry relative="1" as="geometry"/>
                </mxCell>
                <mxCell id="gdSaFjA3N8zEZ9fKeRR8-17" value="0..*" style="text;html=1;align=center;verticalAlign=middle;resizable=0;points=[];autosize=1;strokeColor=none;" parent="gdSaFjA3N8zEZ9fKeRR8-1" vertex="1">
                    <mxGeometry x="215" y="273.5" width="30" height="20" as="geometry"/>
                </mxCell>
                <mxCell id="gdSaFjA3N8zEZ9fKeRR8-18" value="1" style="text;html=1;align=center;verticalAlign=middle;resizable=0;points=[];autosize=1;strokeColor=none;" parent="gdSaFjA3N8zEZ9fKeRR8-1" vertex="1">
                    <mxGeometry x="245" y="126.5" width="20" height="20" as="geometry"/>
                </mxCell>
                <mxCell id="gdSaFjA3N8zEZ9fKeRR8-19" style="edgeStyle=orthogonalEdgeStyle;rounded=0;orthogonalLoop=1;jettySize=auto;html=1;entryX=1.019;entryY=0.938;entryDx=0;entryDy=0;entryPerimeter=0;endArrow=diamond;endFill=1;" parent="gdSaFjA3N8zEZ9fKeRR8-1" source="gdSaFjA3N8zEZ9fKeRR8-14" target="gdSaFjA3N8zEZ9fKeRR8-4" edge="1">
                    <mxGeometry relative="1" as="geometry"/>
                </mxCell>
                <mxCell id="gdSaFjA3N8zEZ9fKeRR8-20" value="1" style="text;html=1;align=center;verticalAlign=middle;resizable=0;points=[];autosize=1;strokeColor=none;" parent="gdSaFjA3N8zEZ9fKeRR8-1" vertex="1">
                    <mxGeometry x="220" y="323.5" width="20" height="20" as="geometry"/>
                </mxCell>
                <mxCell id="gdSaFjA3N8zEZ9fKeRR8-21" value="0..*" style="text;html=1;align=center;verticalAlign=middle;resizable=0;points=[];autosize=1;strokeColor=none;" parent="gdSaFjA3N8zEZ9fKeRR8-1" vertex="1">
                    <mxGeometry x="480" y="323.5" width="30" height="20" as="geometry"/>
                </mxCell>
                <mxCell id="zRfYEAlNPZ1K7EOUWBt4-0" value="&lt;b&gt;UserType&lt;/b&gt;" style="swimlane;fontStyle=0;align=center;verticalAlign=top;childLayout=stackLayout;horizontal=1;startSize=30;horizontalStack=0;resizeParent=1;resizeParentMax=0;resizeLast=0;collapsible=0;marginBottom=0;html=1;" parent="gdSaFjA3N8zEZ9fKeRR8-1" vertex="1">
                    <mxGeometry x="75" y="40" width="115" height="92" as="geometry"/>
                </mxCell>
                <mxCell id="zRfYEAlNPZ1K7EOUWBt4-1" value="+id: Integer&lt;br&gt;+type:String" style="text;html=1;strokeColor=none;fillColor=none;align=left;verticalAlign=middle;spacingLeft=4;spacingRight=4;overflow=hidden;rotatable=0;points=[[0,0.5],[1,0.5]];portConstraint=eastwest;" parent="zRfYEAlNPZ1K7EOUWBt4-0" vertex="1">
                    <mxGeometry y="30" width="115" height="60" as="geometry"/>
                </mxCell>
                <mxCell id="zRfYEAlNPZ1K7EOUWBt4-2" value="operations" style="text;html=1;strokeColor=none;fillColor=none;align=center;verticalAlign=middle;spacingLeft=4;spacingRight=4;overflow=hidden;rotatable=0;points=[[0,0.5],[1,0.5]];portConstraint=eastwest;" parent="zRfYEAlNPZ1K7EOUWBt4-0" vertex="1">
                    <mxGeometry y="90" width="115" height="2" as="geometry"/>
                </mxCell>
                <mxCell id="zRfYEAlNPZ1K7EOUWBt4-3" style="edgeStyle=orthogonalEdgeStyle;rounded=0;orthogonalLoop=1;jettySize=auto;html=1;entryX=0.013;entryY=0.057;entryDx=0;entryDy=0;entryPerimeter=0;endArrow=none;endFill=0;" parent="gdSaFjA3N8zEZ9fKeRR8-1" source="zRfYEAlNPZ1K7EOUWBt4-1" target="gdSaFjA3N8zEZ9fKeRR8-11" edge="1">
                    <mxGeometry relative="1" as="geometry"/>
                </mxCell>
                <mxCell id="zRfYEAlNPZ1K7EOUWBt4-4" value="1" style="text;html=1;align=center;verticalAlign=middle;resizable=0;points=[];autosize=1;strokeColor=none;" parent="gdSaFjA3N8zEZ9fKeRR8-1" vertex="1">
                    <mxGeometry x="190" y="80" width="20" height="20" as="geometry"/>
                </mxCell>
                <mxCell id="zRfYEAlNPZ1K7EOUWBt4-5" value="0..*" style="text;html=1;align=center;verticalAlign=middle;resizable=0;points=[];autosize=1;strokeColor=none;" parent="gdSaFjA3N8zEZ9fKeRR8-1" vertex="1">
                    <mxGeometry x="245" y="80" width="30" height="20" as="geometry"/>
                </mxCell>
                <mxCell id="zRfYEAlNPZ1K7EOUWBt4-7" value="1" style="text;html=1;align=center;verticalAlign=middle;resizable=0;points=[];autosize=1;strokeColor=none;" parent="gdSaFjA3N8zEZ9fKeRR8-1" vertex="1">
                    <mxGeometry x="410" y="130" width="20" height="20" as="geometry"/>
                </mxCell>
                <mxCell id="zRfYEAlNPZ1K7EOUWBt4-8" value="0..*" style="text;html=1;align=center;verticalAlign=middle;resizable=0;points=[];autosize=1;strokeColor=none;" parent="gdSaFjA3N8zEZ9fKeRR8-1" vertex="1">
                    <mxGeometry x="535" y="240" width="30" height="20" as="geometry"/>
                </mxCell>
                <mxCell id="jnRCrgpyZO859UyOtg5g-0" value="&lt;b&gt;Class diagram&lt;/b&gt;" style="text;html=1;align=center;verticalAlign=middle;resizable=0;points=[];autosize=1;strokeColor=none;" vertex="1" parent="gdSaFjA3N8zEZ9fKeRR8-1">
                    <mxGeometry x="10" y="10" width="100" height="20" as="geometry"/>
                </mxCell>
            </root>
        </mxGraphModel>
    </diagram>
</mxfile>